<svg width="32" height="32" viewBox="0 0 32 32" fill="none" xmlns="http://www.w3.org/2000/svg">
<path fill-rule="evenodd" clip-rule="evenodd" d="M8 2C5.25043 2 3 4.25042 3 7V29C3.00008 29.2146 3.06917 29.4235 3.19708 29.5957C3.32498 29.768 3.50491 29.8946 3.71029 29.9568C3.91567 30.019 4.1356 30.0135 4.33759 29.9411C4.53959 29.8687 4.71294 29.7332 4.83203 29.5547L6 27.8027L7.16797 29.5547C7.25931 29.6916 7.38303 29.8039 7.52818 29.8816C7.67332 29.9593 7.83539 29.9999 8 29.9999C8.16461 29.9999 8.32668 29.9593 8.47182 29.8816C8.61697 29.8039 8.74069 29.6916 8.83203 29.5547L10 27.8027L11.168 29.5547C11.2593 29.6916 11.383 29.8039 11.5282 29.8816C11.6733 29.9593 11.8354 29.9999 12 29.9999C12.1646 29.9999 12.3267 29.9593 12.4718 29.8816C12.617 29.8039 12.7407 29.6916 12.832 29.5547L14 27.8027L15.168 29.5547C15.2593 29.6916 15.383 29.8039 15.5282 29.8816C15.6733 29.9593 15.8354 29.9999 16 29.9999C16.1646 29.9999 16.3267 29.9593 16.4718 29.8816C16.617 29.8039 16.7407 29.6916 16.832 29.5547L18 27.8027L19.168 29.5547C19.2871 29.7332 19.4604 29.8687 19.6624 29.9411C19.8644 30.0135 20.0843 30.019 20.2897 29.9568C20.4951 29.8946 20.675 29.768 20.8029 29.5957C20.9308 29.4235 20.9999 29.2146 21 29V17H28C28.2652 17 28.5195 16.8946 28.7071 16.7071C28.8946 16.5195 29 16.2652 29 16V7C29 4.25042 26.7496 2 24 2H8ZM8 4H20.0078C19.3759 4.83731 19 5.87659 19 7V25.6973L18.832 25.4453C18.7407 25.3084 18.617 25.1961 18.4718 25.1184C18.3267 25.0407 18.1646 25.0001 18 25.0001C17.8354 25.0001 17.6733 25.0407 17.5282 25.1184C17.383 25.1961 17.2593 25.3084 17.168 25.4453L16 27.1973L14.832 25.4453C14.7407 25.3084 14.617 25.1961 14.4718 25.1184C14.3267 25.0407 14.1646 25.0001 14 25.0001C13.8354 25.0001 13.6733 25.0407 13.5282 25.1184C13.383 25.1961 13.2593 25.3084 13.168 25.4453L12 27.1973L10.832 25.4453C10.7407 25.3084 10.617 25.1961 10.4718 25.1184C10.3267 25.0407 10.1646 25.0001 10 25.0001C9.83539 25.0001 9.67332 25.0407 9.52818 25.1184C9.38303 25.1961 9.25931 25.3084 9.16797 25.4453L8 27.1973L6.83203 25.4453C6.74069 25.3084 6.61697 25.1961 6.47182 25.1184C6.32668 25.0407 6.16461 25.0001 6 25.0001C5.83539 25.0001 5.67332 25.0407 5.52818 25.1184C5.38303 25.1961 5.25931 25.3084 5.16797 25.4453L5 25.6973V7C5 5.3313 6.3313 4 8 4ZM24 4C25.6687 4 27 5.3313 27 7V15H21V7C21 5.3313 22.3313 4 24 4Z" fill="#20212E"/>
<path fill-rule="evenodd" clip-rule="evenodd" d="M8 14C7.73478 14 7.48043 14.1054 7.29289 14.2929C7.10536 14.4804 7 14.7348 7 15C7 15.2652 7.10536 15.5196 7.29289 15.7071C7.48043 15.8946 7.73478 16 8 16H12C12.2652 16 12.5196 15.8946 12.7071 15.7071C12.8946 15.5196 13 15.2652 13 15C13 14.7348 12.8946 14.4804 12.7071 14.2929C12.5196 14.1054 12.2652 14 12 14H8ZM8 17C7.73478 17 7.48043 17.1054 7.29289 17.2929C7.10536 17.4804 7 17.7348 7 18C7 18.2652 7.10536 18.5196 7.29289 18.7071C7.48043 18.8946 7.73478 19 8 19H16C16.2652 19 16.5196 18.8946 16.7071 18.7071C16.8946 18.5196 17 18.2652 17 18C17 17.7348 16.8946 17.4804 16.7071 17.2929C16.5196 17.1054 16.2652 17 16 17H8ZM8 20C7.73478 20 7.48043 20.1054 7.29289 20.2929C7.10536 20.4804 7 20.7348 7 21C7 21.2652 7.10536 21.5196 7.29289 21.7071C7.48043 21.8946 7.73478 22 8 22H16C16.2652 22 16.5196 21.8946 16.7071 21.7071C16.8946 21.5196 17 21.2652 17 21C17 20.7348 16.8946 20.4804 16.7071 20.2929C16.5196 20.1054 16.2652 20 16 20H8ZM8 7C7.73479 7.00003 7.48045 7.10539 7.29292 7.29292C7.10539 7.48045 7.00003 7.73479 7 8V12C7.00003 12.2652 7.10539 12.5195 7.29292 12.7071C7.48045 12.8946 7.73479 13 8 13H12C12.2652 13 12.5195 12.8946 12.7071 12.7071C12.8946 12.5195 13 12.2652 13 12V8C13 7.73479 12.8946 7.48045 12.7071 7.29292C12.5195 7.10539 12.2652 7.00003 12 7H8ZM9 9H11V11H9V9Z" fill="#20212E"/>
</svg>
