<svg width="32" height="32" viewBox="0 0 32 32" fill="none" xmlns="http://www.w3.org/2000/svg">
<path d="M29.2733 13.3178H2.72666C2.11522 13.3233 1.5233 13.5337 1.04554 13.9153C0.567778 14.297 0.231775 14.8277 0.0912549 15.4228C-0.0492652 16.0179 0.0138141 16.643 0.270407 17.198C0.526999 17.753 0.962285 18.206 1.50666 18.4844L3.99999 19.7311V21.9844C3.99999 23.5757 4.63214 25.1019 5.75735 26.2271C6.88257 27.3523 8.4087 27.9844 9.99999 27.9844H22C23.5913 27.9844 25.1174 27.3523 26.2426 26.2271C27.3679 25.1019 28 23.5757 28 21.9844V19.7311L30.4933 18.4844C31.0377 18.206 31.473 17.753 31.7296 17.198C31.9862 16.643 32.0493 16.0179 31.9087 15.4228C31.7682 14.8277 31.4322 14.297 30.9544 13.9153C30.4767 13.5337 29.8848 13.3233 29.2733 13.3178ZM2.10666 17.3178C1.80988 17.1867 1.56816 16.9561 1.42319 16.6658C1.27823 16.3755 1.23911 16.0438 1.31258 15.7277C1.38606 15.4117 1.56752 15.1312 1.82568 14.9347C2.08383 14.7381 2.40248 14.6378 2.72666 14.6511H3.99999V18.2378L2.10666 17.3178ZM29.8933 17.3178L28 18.2378V14.6511H29.2733C29.5975 14.6378 29.9162 14.7381 30.1743 14.9347C30.4325 15.1312 30.6139 15.4117 30.6874 15.7277C30.7609 16.0438 30.7218 16.3755 30.5768 16.6658C30.4318 16.9561 30.1901 17.1867 29.8933 17.3178ZM15.5733 9.6911C14.2067 10.8311 14.58 11.9844 15.3333 11.9844C15.5101 11.9844 15.6797 11.9142 15.8047 11.7892C15.9298 11.6641 16 11.4946 16 11.3178C16 10.7044 17.3333 10.5111 17.3333 9.09777C17.3333 7.31777 15.08 7.3911 16.4267 6.2711C17.7733 5.1511 17.4267 3.98444 16.6667 3.98444C16.4898 3.98444 16.3203 4.05467 16.1953 4.1797C16.0702 4.30472 16 4.47429 16 4.6511C16 5.26444 14.6667 5.45777 14.6667 6.8711C14.6667 8.28444 16 8.48444 16 9.09777C16 9.31777 15.8933 9.42444 15.5733 9.6911ZM10.24 9.6911C8.87333 10.8311 9.24666 11.9844 9.99999 11.9844C10.1768 11.9844 10.3464 11.9142 10.4714 11.7892C10.5964 11.6641 10.6667 11.4946 10.6667 11.3178C10.6667 10.7044 12 10.5111 12 9.09777C12 7.31777 9.74666 7.3911 11.0933 6.2711C12.44 5.1511 12.0933 3.98444 11.3333 3.98444C11.1565 3.98444 10.9869 4.05467 10.8619 4.1797C10.7369 4.30472 10.6667 4.47429 10.6667 4.6511C10.6667 5.26444 9.33333 5.45777 9.33333 6.8711C9.33333 8.28444 10.6667 8.48444 10.6667 9.09777C10.6667 9.31777 10.56 9.42444 10.24 9.6911ZM20.9067 9.6911C19.54 10.8311 19.9133 11.9844 20.6667 11.9844C20.8435 11.9844 21.013 11.9142 21.1381 11.7892C21.2631 11.6641 21.3333 11.4946 21.3333 11.3178C21.3333 10.7044 22.6667 10.5111 22.6667 9.09777C22.6667 7.31777 20.4133 7.3911 21.76 6.2711C23.1067 5.1511 22.76 3.98444 22 3.98444C21.8232 3.98444 21.6536 4.05467 21.5286 4.1797C21.4036 4.30472 21.3333 4.47429 21.3333 4.6511C21.3333 5.26444 20 5.45777 20 6.8711C20 8.28444 21.3333 8.48444 21.3333 9.09777C21.3333 9.31777 21.2267 9.42444 20.9067 9.6911Z" fill="#20212E"/>
</svg>
