<svg width="50" height="50" viewBox="0 0 50 50" fill="none" xmlns="http://www.w3.org/2000/svg">
<rect width="50" height="50" rx="8" fill="#F2F2F2"/>
<path d="M24.7443 30.6591C23.8958 30.6591 23.1402 30.5133 22.4773 30.2216C21.8182 29.9261 21.2973 29.5208 20.9148 29.0057C20.536 28.4867 20.3409 27.8883 20.3295 27.2102H22.8068C22.822 27.4943 22.9148 27.7443 23.0852 27.9602C23.2595 28.1723 23.4905 28.3371 23.7784 28.4545C24.0663 28.572 24.3902 28.6307 24.75 28.6307C25.125 28.6307 25.4564 28.5644 25.7443 28.4318C26.0322 28.2992 26.2576 28.1155 26.4205 27.8807C26.5833 27.6458 26.6648 27.375 26.6648 27.0682C26.6648 26.7576 26.5777 26.483 26.4034 26.2443C26.233 26.0019 25.9867 25.8125 25.6648 25.6761C25.3466 25.5398 24.9678 25.4716 24.5284 25.4716H23.4432V23.6648H24.5284C24.8996 23.6648 25.2273 23.6004 25.5114 23.4716C25.7992 23.3428 26.0227 23.1648 26.1818 22.9375C26.3409 22.7064 26.4205 22.4375 26.4205 22.1307C26.4205 21.839 26.3504 21.5833 26.2102 21.3636C26.0739 21.1402 25.8807 20.9659 25.6307 20.8409C25.3845 20.7159 25.0966 20.6534 24.767 20.6534C24.4337 20.6534 24.1288 20.714 23.8523 20.8352C23.5758 20.9527 23.3542 21.1212 23.1875 21.3409C23.0208 21.5606 22.9318 21.8182 22.9205 22.1136H20.5625C20.5739 21.4432 20.7652 20.8523 21.1364 20.3409C21.5076 19.8295 22.0076 19.4299 22.6364 19.142C23.2689 18.8504 23.983 18.7045 24.7784 18.7045C25.5814 18.7045 26.2841 18.8504 26.8864 19.142C27.4886 19.4337 27.9564 19.8277 28.2898 20.3239C28.6269 20.8163 28.7936 21.3693 28.7898 21.983C28.7936 22.6345 28.5909 23.178 28.1818 23.6136C27.7765 24.0492 27.2481 24.3258 26.5966 24.4432V24.5341C27.4527 24.6439 28.1042 24.9413 28.5511 25.4261C29.0019 25.9072 29.2254 26.5095 29.2216 27.233C29.2254 27.8958 29.0341 28.4848 28.6477 29C28.2652 29.5152 27.7367 29.9205 27.0625 30.2159C26.3883 30.5114 25.6155 30.6591 24.7443 30.6591Z" fill="#20212E"/>
</svg>
