<svg width="48" height="48" viewBox="0 0 48 48" fill="none" xmlns="http://www.w3.org/2000/svg">
<g opacity="0.5">
<path d="M24 11.3333C31.364 11.3333 37.3333 17.3027 37.3333 24.6667C37.3333 32.0307 31.364 38 24 38C16.636 38 10.6667 32.0307 10.6667 24.6667C10.6667 17.3027 16.636 11.3333 24 11.3333ZM24 14C21.171 14 18.4579 15.1238 16.4575 17.1242C14.4571 19.1246 13.3333 21.8377 13.3333 24.6667C13.3333 27.4957 14.4571 30.2088 16.4575 32.2091C18.4579 34.2095 21.171 35.3333 24 35.3333C26.829 35.3333 29.5421 34.2095 31.5425 32.2091C33.5428 30.2088 34.6667 27.4957 34.6667 24.6667C34.6667 21.8377 33.5428 19.1246 31.5425 17.1242C29.5421 15.1238 26.829 14 24 14ZM24 16.6667C24.3266 16.6667 24.6418 16.7866 24.8858 17.0036C25.1299 17.2206 25.2858 17.5197 25.324 17.844L25.3333 18V24.1147L28.9427 27.724C29.1818 27.964 29.3206 28.2859 29.331 28.6245C29.3413 28.9631 29.2224 29.293 28.9983 29.547C28.7743 29.8011 28.4619 29.9604 28.1247 29.9925C27.7875 30.0247 27.4506 29.9272 27.1827 29.72L27.0573 29.6093L23.0573 25.6093C22.8501 25.4019 22.717 25.132 22.6787 24.8413L22.6667 24.6667V18C22.6667 17.6464 22.8071 17.3072 23.0572 17.0572C23.3072 16.8072 23.6464 16.6667 24 16.6667Z" fill="#20212E"/>
</g>
</svg>
