<svg width="48" height="48" viewBox="0 0 48 48" fill="none" xmlns="http://www.w3.org/2000/svg">
<g opacity="0.5">
<path d="M24 9.33333C21.0992 9.33333 18.2635 10.1935 15.8516 11.8051C13.4397 13.4167 11.5598 15.7073 10.4498 18.3873C9.33967 21.0673 9.04922 24.0163 9.61514 26.8613C10.1811 29.7064 11.5779 32.3197 13.6291 34.3709C15.6803 36.4221 18.2936 37.8189 21.1387 38.3848C23.9837 38.9508 26.9327 38.6603 29.6127 37.5502C32.2927 36.4401 34.5833 34.5603 36.1949 32.1484C37.8065 29.7364 38.6667 26.9008 38.6667 24C38.6667 20.1102 37.1214 16.3796 34.3709 13.6291C31.6204 10.8786 27.8898 9.33333 24 9.33333ZM25.3333 12.08C27.5854 12.3442 29.7166 13.241 31.48 14.6667L25.3333 20.7867V12.08ZM12 24C12.0014 21.0493 13.0899 18.2025 15.0576 16.0036C17.0253 13.8047 19.7342 12.4079 22.6667 12.08V24C22.6656 24.1755 22.6993 24.3494 22.7656 24.5119C22.832 24.6743 22.9297 24.8221 23.0533 24.9467L31.48 33.3333C29.7172 34.7386 27.5942 35.6188 25.3542 35.8733C23.1142 36.1277 20.8479 35.746 18.8148 34.7719C16.7817 33.7978 15.0642 32.2707 13.8589 30.3656C12.6536 28.4605 12.0094 26.2544 12 24ZM33.3333 31.48L25.88 24L33.3333 16.52C35.0273 18.6451 35.9498 21.2823 35.9498 24C35.9498 26.7177 35.0273 29.3549 33.3333 31.48Z" fill="#20212E"/>
</g>
</svg>
