<svg width="48" height="48" viewBox="0 0 48 48" fill="none" xmlns="http://www.w3.org/2000/svg">
<g opacity="0.5">
<g clip-path="url(#clip0_2003_1095)">
<path d="M34.4062 14.1875V12.6875C34.4062 10.1028 32.3034 8 29.7188 8H18.2188C15.6341 8 13.5312 10.1028 13.5312 12.6875V14.1875H34.4062Z" fill="#20212E"/>
<path d="M15.4062 27.9375V38.125C15.4062 39.1605 16.2457 40 17.2812 40H30.6562C31.6918 40 32.5312 39.1605 32.5312 38.125V27.9375H15.4062ZM26.4688 35.9375H21.4688C20.951 35.9375 20.5312 35.5177 20.5312 35C20.5312 34.4823 20.951 34.0625 21.4688 34.0625H26.4688C26.9865 34.0625 27.4062 34.4823 27.4062 35C27.4062 35.5177 26.9865 35.9375 26.4688 35.9375ZM26.4688 31.9375H21.4688C20.951 31.9375 20.5312 31.5177 20.5312 31C20.5312 30.4823 20.951 30.0625 21.4688 30.0625H26.4688C26.9865 30.0625 27.4062 30.4823 27.4062 31C27.4062 31.5177 26.9865 31.9375 26.4688 31.9375Z" fill="#20212E"/>
<path d="M35.2812 16.0625H12.7188C10.1341 16.0625 8.03125 18.1653 8.03125 20.75V28.25C8.03125 30.8347 10.1341 32.9375 12.7188 32.9375H13.5312V27.9375H12.9688C12.451 27.9375 12.0312 27.5177 12.0312 27C12.0312 26.4823 12.451 26.0625 12.9688 26.0625H34.9688C35.4865 26.0625 35.9062 26.4823 35.9062 27C35.9062 27.5177 35.4865 27.9375 34.9688 27.9375H34.4062V32.9375H35.2812C37.8659 32.9375 39.9688 30.8347 39.9688 28.25V20.75C39.9688 18.1653 37.8659 16.0625 35.2812 16.0625ZM15.9688 21.9375H12.9688C12.451 21.9375 12.0312 21.5177 12.0312 21C12.0312 20.4823 12.451 20.0625 12.9688 20.0625H15.9688C16.4865 20.0625 16.9062 20.4823 16.9062 21C16.9062 21.5177 16.4865 21.9375 15.9688 21.9375Z" fill="#20212E"/>
</g>
</g>
<defs>
<clipPath id="clip0_2003_1095">
<rect width="32" height="32" fill="white" transform="translate(8 8)"/>
</clipPath>
</defs>
</svg>
