<svg width="48" height="48" viewBox="0 0 48 48" fill="none" xmlns="http://www.w3.org/2000/svg">
<g opacity="0.5">
<path d="M21.7203 13.92C21.7203 13.623 21.8407 13.3381 22.055 13.128C22.2693 12.918 22.56 12.8 22.863 12.8H25.1484C25.4515 12.8 25.7421 12.918 25.9564 13.128C26.1707 13.3381 26.2911 13.623 26.2911 13.92C26.2911 14.217 26.1707 14.5019 25.9564 14.712C25.7421 14.922 25.4515 15.04 25.1484 15.04H22.863C22.56 15.04 22.2693 14.922 22.055 14.712C21.8407 14.5019 21.7203 14.217 21.7203 13.92ZM39.8778 30.1039C39.1011 31.6383 37.9017 32.9288 36.4153 33.8294C34.9289 34.73 33.215 35.2048 31.4675 35.1999H16.5439C14.7945 35.2069 13.0781 34.7331 11.5895 33.8324C10.101 32.9316 8.89976 31.64 8.12225 30.1039C8.03415 29.9326 7.99244 29.7419 8.00112 29.5503C8.0098 29.3586 8.06858 29.1723 8.17182 29.0093C8.27505 28.8463 8.41929 28.712 8.59069 28.6193C8.7621 28.5266 8.95492 28.4786 9.15068 28.4799H10.3619C10.7754 25.8634 11.9247 23.4116 13.6807 21.3997C15.4367 19.3877 17.7301 17.8952 20.3034 17.0896C22.7179 16.3501 25.305 16.3501 27.7195 17.0896C30.2907 17.8969 32.5816 19.3902 34.3355 21.402C36.0894 23.4139 37.237 25.8648 37.6495 28.4799H38.8608C39.0556 28.4805 39.247 28.5299 39.4168 28.6234C39.5866 28.7169 39.7293 28.8513 39.8312 29.0141C39.9331 29.1768 39.9908 29.3623 39.999 29.5531C40.0072 29.7438 39.9654 29.9334 39.8778 30.1039ZM12.6588 28.4799H35.3527C34.9387 26.3507 33.9496 24.3692 32.4884 22.742C31.0273 21.1149 29.1476 19.9016 27.0453 19.2288C25.0702 18.6215 22.9527 18.6215 20.9776 19.2288C18.8732 19.9 16.9911 21.1125 15.5278 22.7397C14.0646 24.367 13.0737 26.3494 12.6588 28.4799ZM36.6554 30.7199H11.3104C11.9764 31.4288 12.7857 31.994 13.6867 32.3797C14.5877 32.7653 15.5607 32.9629 16.5439 32.9599H31.4675C32.4507 32.9629 33.4237 32.7653 34.3248 32.3797C35.2258 31.994 36.035 31.4288 36.7011 30.7199H36.6554Z" fill="#20212E"/>
</g>
</svg>
