<svg width="48" height="48" viewBox="0 0 48 48" fill="none" xmlns="http://www.w3.org/2000/svg">
<g opacity="0.5">
<path d="M24.4 24.2933C25.1114 23.6775 25.6821 22.9159 26.0732 22.06C26.4643 21.2042 26.6667 20.2743 26.6667 19.3333C26.6667 17.5652 25.9643 15.8695 24.7141 14.6193C23.4638 13.3691 21.7681 12.6667 20 12.6667C18.2319 12.6667 16.5362 13.3691 15.286 14.6193C14.0357 15.8695 13.3333 17.5652 13.3333 19.3333C13.3333 20.2743 13.5357 21.2042 13.9268 22.06C14.3179 22.9159 14.8886 23.6775 15.6 24.2933C13.7335 25.1385 12.15 26.5034 11.0387 28.2247C9.92734 29.9461 9.33531 31.9511 9.33334 34C9.33334 34.3536 9.47382 34.6928 9.72387 34.9428C9.97392 35.1929 10.3131 35.3333 10.6667 35.3333C11.0203 35.3333 11.3594 35.1929 11.6095 34.9428C11.8595 34.6928 12 34.3536 12 34C12 31.8783 12.8429 29.8434 14.3432 28.3432C15.8434 26.8429 17.8783 26 20 26C22.1217 26 24.1566 26.8429 25.6569 28.3432C27.1572 29.8434 28 31.8783 28 34C28 34.3536 28.1405 34.6928 28.3905 34.9428C28.6406 35.1929 28.9797 35.3333 29.3333 35.3333C29.687 35.3333 30.0261 35.1929 30.2762 34.9428C30.5262 34.6928 30.6667 34.3536 30.6667 34C30.6647 31.9511 30.0727 29.9461 28.9614 28.2247C27.8501 26.5034 26.2665 25.1385 24.4 24.2933ZM20 23.3333C19.2089 23.3333 18.4355 23.0987 17.7777 22.6592C17.1199 22.2197 16.6072 21.595 16.3045 20.8641C16.0017 20.1332 15.9225 19.3289 16.0769 18.553C16.2312 17.7771 16.6122 17.0643 17.1716 16.5049C17.731 15.9455 18.4437 15.5645 19.2196 15.4102C19.9956 15.2559 20.7998 15.3351 21.5307 15.6378C22.2616 15.9406 22.8864 16.4533 23.3259 17.1111C23.7654 17.7689 24 18.5422 24 19.3333C24 20.3942 23.5786 21.4116 22.8284 22.1618C22.0783 22.9119 21.0609 23.3333 20 23.3333ZM32.9867 23.76C33.84 22.7991 34.3974 21.6121 34.5917 20.3418C34.7861 19.0715 34.6092 17.7721 34.0824 16.6C33.5555 15.4279 32.7011 14.4331 31.622 13.7352C30.5429 13.0374 29.2851 12.6663 28 12.6667C27.6464 12.6667 27.3073 12.8071 27.0572 13.0572C26.8072 13.3072 26.6667 13.6464 26.6667 14C26.6667 14.3536 26.8072 14.6928 27.0572 14.9428C27.3073 15.1929 27.6464 15.3333 28 15.3333C29.0609 15.3333 30.0783 15.7548 30.8284 16.5049C31.5786 17.2551 32 18.2725 32 19.3333C31.9981 20.0337 31.8124 20.7212 31.4614 21.3272C31.1104 21.9333 30.6065 22.4365 30 22.7867C29.8023 22.9007 29.6372 23.0636 29.5205 23.2597C29.4038 23.4558 29.3393 23.6785 29.3333 23.9067C29.3278 24.133 29.3799 24.3571 29.4849 24.5577C29.5899 24.7583 29.7442 24.9289 29.9333 25.0533L30.4533 25.4L30.6267 25.4933C32.2339 26.2556 33.5898 27.4613 34.5346 28.9684C35.4795 30.4755 35.9741 32.2213 35.96 34C35.96 34.3536 36.1005 34.6928 36.3505 34.9428C36.6006 35.1929 36.9397 35.3333 37.2933 35.3333C37.647 35.3333 37.9861 35.1929 38.2362 34.9428C38.4862 34.6928 38.6267 34.3536 38.6267 34C38.6376 31.9539 38.1251 29.939 37.138 28.1468C36.1508 26.3545 34.7218 24.8444 32.9867 23.76Z" fill="#20212E"/>
</g>
</svg>
