<svg width="48" height="48" viewBox="0 0 48 48" fill="none" xmlns="http://www.w3.org/2000/svg">
<g opacity="0.5">
<g clip-path="url(#clip0_2003_1092)">
<path d="M12.6667 40H32.6667C33.9063 39.9965 35.0938 39.5013 35.9687 38.6231C36.8436 37.745 37.3344 36.5556 37.3333 35.316V25.2667C37.3333 24.913 37.1929 24.5739 36.9428 24.3239C36.6928 24.0738 36.3536 23.9333 36 23.9333C35.6464 23.9333 35.3072 24.0738 35.0572 24.3239C34.8071 24.5739 34.6667 24.913 34.6667 25.2667V35.316C34.6684 35.8486 34.4588 36.3601 34.0839 36.7383C33.7089 37.1165 33.1992 37.3305 32.6667 37.3333H12.6667C12.1341 37.3305 11.6244 37.1165 11.2494 36.7383C10.8745 36.3601 10.6649 35.8486 10.6667 35.316V15.3507C10.6649 14.8181 10.8745 14.3066 11.2494 13.9284C11.6244 13.5502 12.1341 13.3362 12.6667 13.3333H22.6667C23.0203 13.3333 23.3594 13.1929 23.6095 12.9428C23.8595 12.6928 24 12.3536 24 12C24 11.6464 23.8595 11.3072 23.6095 11.0572C23.3594 10.8071 23.0203 10.6667 22.6667 10.6667H12.6667C11.4271 10.6702 10.2395 11.1654 9.36461 12.0435C8.48971 12.9217 7.99894 14.1111 8 15.3507V35.316C7.99894 36.5556 8.48971 37.745 9.36461 38.6231C10.2395 39.5013 11.4271 39.9965 12.6667 40Z" fill="#20212E"/>
<path d="M20.6067 22.0587L19.5547 26.8773C19.5071 27.0959 19.5152 27.3229 19.5783 27.5375C19.6415 27.7521 19.7576 27.9474 19.916 28.1053C20.0766 28.2593 20.2719 28.3723 20.4855 28.4347C20.699 28.4972 20.9244 28.5072 21.1427 28.464L25.9507 27.4093C26.2003 27.3545 26.429 27.2291 26.6093 27.048L38.7613 14.896C39.1328 14.5246 39.4275 14.0836 39.6286 13.5982C39.8297 13.1129 39.9331 12.5927 39.9331 12.0673C39.9331 11.542 39.8297 11.0218 39.6286 10.5364C39.4275 10.0511 39.1328 9.61011 38.7613 9.23867C37.9997 8.51085 36.9868 8.10469 35.9333 8.10469C34.8799 8.10469 33.867 8.51085 33.1053 9.23867L20.972 21.4027C20.7899 21.5818 20.6631 21.8095 20.6067 22.0587ZM34.9907 11.1253C35.2443 10.8823 35.5821 10.7467 35.9333 10.7467C36.2846 10.7467 36.6223 10.8823 36.876 11.1253C37.1227 11.3768 37.2608 11.7151 37.2608 12.0673C37.2608 12.4196 37.1227 12.7578 36.876 13.0093L35.9333 13.952L34.048 12.0667L34.9907 11.1253ZM23.124 23.0107L32.156 13.956L34.0227 15.832L24.9867 24.8893L22.5933 25.4147L23.124 23.0107Z" fill="#20212E"/>
</g>
</g>
<defs>
<clipPath id="clip0_2003_1092">
<rect width="32" height="32" fill="white" transform="translate(8 8)"/>
</clipPath>
</defs>
</svg>
