<svg width="48" height="48" viewBox="0 0 48 48" fill="none" xmlns="http://www.w3.org/2000/svg">
<g opacity="0.5">
<path d="M37.2733 21.3178H10.7267C10.1152 21.3233 9.5233 21.5337 9.04554 21.9153C8.56778 22.297 8.23177 22.8277 8.09125 23.4228C7.95073 24.0179 8.01381 24.643 8.27041 25.198C8.527 25.753 8.96228 26.206 9.50666 26.4844L12 27.7311V29.9844C12 31.5757 12.6321 33.1019 13.7574 34.2271C14.8826 35.3523 16.4087 35.9844 18 35.9844H30C31.5913 35.9844 33.1174 35.3523 34.2426 34.2271C35.3679 33.1019 36 31.5757 36 29.9844V27.7311L38.4933 26.4844C39.0377 26.206 39.473 25.753 39.7296 25.198C39.9862 24.643 40.0493 24.0179 39.9087 23.4228C39.7682 22.8277 39.4322 22.297 38.9544 21.9153C38.4767 21.5337 37.8848 21.3233 37.2733 21.3178ZM10.1067 25.3178C9.80988 25.1867 9.56816 24.9561 9.42319 24.6658C9.27823 24.3755 9.23911 24.0438 9.31258 23.7277C9.38606 23.4117 9.56752 23.1312 9.82568 22.9347C10.0838 22.7381 10.4025 22.6378 10.7267 22.6511H12V26.2378L10.1067 25.3178ZM37.8933 25.3178L36 26.2378V22.6511H37.2733C37.5975 22.6378 37.9162 22.7381 38.1743 22.9347C38.4325 23.1312 38.6139 23.4117 38.6874 23.7277C38.7609 24.0438 38.7218 24.3755 38.5768 24.6658C38.4318 24.9561 38.1901 25.1867 37.8933 25.3178ZM23.5733 17.6911C22.2067 18.8311 22.58 19.9844 23.3333 19.9844C23.5101 19.9844 23.6797 19.9142 23.8047 19.7892C23.9298 19.6641 24 19.4946 24 19.3178C24 18.7044 25.3333 18.5111 25.3333 17.0978C25.3333 15.3178 23.08 15.3911 24.4267 14.2711C25.7733 13.1511 25.4267 11.9844 24.6667 11.9844C24.4898 11.9844 24.3203 12.0547 24.1953 12.1797C24.0702 12.3047 24 12.4743 24 12.6511C24 13.2644 22.6667 13.4578 22.6667 14.8711C22.6667 16.2844 24 16.4844 24 17.0978C24 17.3178 23.8933 17.4244 23.5733 17.6911ZM18.24 17.6911C16.8733 18.8311 17.2467 19.9844 18 19.9844C18.1768 19.9844 18.3464 19.9142 18.4714 19.7892C18.5964 19.6641 18.6667 19.4946 18.6667 19.3178C18.6667 18.7044 20 18.5111 20 17.0978C20 15.3178 17.7467 15.3911 19.0933 14.2711C20.44 13.1511 20.0933 11.9844 19.3333 11.9844C19.1565 11.9844 18.9869 12.0547 18.8619 12.1797C18.7369 12.3047 18.6667 12.4743 18.6667 12.6511C18.6667 13.2644 17.3333 13.4578 17.3333 14.8711C17.3333 16.2844 18.6667 16.4844 18.6667 17.0978C18.6667 17.3178 18.56 17.4244 18.24 17.6911ZM28.9067 17.6911C27.54 18.8311 27.9133 19.9844 28.6667 19.9844C28.8435 19.9844 29.013 19.9142 29.1381 19.7892C29.2631 19.6641 29.3333 19.4946 29.3333 19.3178C29.3333 18.7044 30.6667 18.5111 30.6667 17.0978C30.6667 15.3178 28.4133 15.3911 29.76 14.2711C31.1067 13.1511 30.76 11.9844 30 11.9844C29.8232 11.9844 29.6536 12.0547 29.5286 12.1797C29.4036 12.3047 29.3333 12.4743 29.3333 12.6511C29.3333 13.2644 28 13.4578 28 14.8711C28 16.2844 29.3333 16.4844 29.3333 17.0978C29.3333 17.3178 29.2267 17.4244 28.9067 17.6911Z" fill="#20212E"/>
</g>
</svg>
