<svg width="48" height="48" viewBox="0 0 48 48" fill="none" xmlns="http://www.w3.org/2000/svg">
<g opacity="0.5">
<path d="M17.4266 23.5391C18.4961 23.5383 19.5321 23.1712 20.3583 22.5003C21.1845 21.8294 21.7497 20.8964 21.9576 19.86C22.1656 18.8236 22.0033 17.7481 21.4986 16.8166C20.9939 15.8852 20.1779 15.1554 19.1896 14.7517C18.2013 14.3479 17.1019 14.2951 16.0787 14.6024C15.0554 14.9096 14.1717 15.5578 13.5779 16.4365C12.9842 17.3152 12.7172 18.3702 12.8224 19.4216C12.9277 20.473 13.3987 21.4558 14.1552 22.2026C14.5845 22.6272 15.0945 22.9639 15.6559 23.1932C16.2173 23.4226 16.8191 23.5401 17.4266 23.5391ZM16.135 17.6947C16.4338 17.3995 16.827 17.2158 17.2475 17.1749C17.6681 17.134 18.09 17.2384 18.4413 17.4703C18.7927 17.7023 19.0517 18.0474 19.1744 18.4469C19.2971 18.8464 19.2757 19.2755 19.114 19.6612C18.9523 20.0469 18.6602 20.3652 18.2875 20.562C17.9148 20.7588 17.4846 20.8219 17.0702 20.7404C16.6557 20.659 16.2827 20.4381 16.0146 20.1154C15.7465 19.7927 15.6 19.3881 15.6 18.9706C15.5993 18.7336 15.6463 18.4987 15.7381 18.2797C15.83 18.0607 15.9649 17.8618 16.135 17.6947ZM30.5734 24.4585C29.503 24.4585 28.4657 24.8252 27.6383 25.496C26.8108 26.1668 26.2444 27.1004 26.0356 28.1375C25.8268 29.1746 25.9884 30.2512 26.493 31.1838C26.9976 32.1165 27.8138 32.8474 28.8028 33.2521C29.7917 33.6567 30.892 33.7101 31.9164 33.4032C32.9407 33.0962 33.8256 32.4479 34.4202 31.5686C35.0149 30.6894 35.2826 29.6336 35.1777 28.5813C35.0728 27.5289 34.6018 26.545 33.8449 25.7973C33.4163 25.3715 32.9064 25.0339 32.3449 24.8042C31.7833 24.5744 31.1812 24.4569 30.5734 24.4585ZM31.865 30.3052C31.522 30.6415 31.0581 30.8298 30.5748 30.8289C30.0916 30.828 29.6284 30.6379 29.2867 30.3004C28.945 29.9628 28.7526 29.5052 28.7517 29.0278C28.7508 28.5504 28.9414 28.0921 29.2818 27.7532C29.4512 27.5847 29.6526 27.4508 29.8745 27.3592C30.0964 27.2677 30.3344 27.2204 30.5748 27.2199C30.8153 27.2195 31.0534 27.266 31.2757 27.3567C31.4979 27.4474 31.6998 27.5805 31.8698 27.7485C32.0398 27.9165 32.1746 28.1159 32.2664 28.3355C32.3582 28.555 32.4052 28.7903 32.4048 29.0278C32.4043 29.2654 32.3564 29.5005 32.2638 29.7197C32.1711 29.9389 32.0356 30.1379 31.8649 30.3052L31.865 30.3052ZM33.3073 14.8051C33.4373 14.9335 33.5404 15.086 33.6108 15.2538C33.6812 15.4216 33.7174 15.6014 33.7174 15.7831C33.7174 15.9647 33.6812 16.1445 33.6108 16.3123C33.5404 16.4801 33.4373 16.6326 33.3073 16.761L16.6726 33.1948C16.4097 33.4525 16.0542 33.5968 15.6838 33.5961C15.3134 33.5954 14.9584 33.4497 14.6965 33.191C14.4346 32.9322 14.2872 32.5815 14.2865 32.2156C14.2858 31.8498 14.4319 31.4985 14.6928 31.2388L31.3275 14.8051C31.59 14.5457 31.9461 14.4 32.3174 14.4C32.6887 14.4 33.0448 14.5457 33.3073 14.8051Z" fill="#20212E"/>
</g>
</svg>
