<svg width="48" height="48" viewBox="0 0 48 48" fill="none" xmlns="http://www.w3.org/2000/svg">
<g opacity="0.5">
<path d="M24 10.6667C21.172 10.6698 18.4607 11.7947 16.461 13.7944C14.4613 15.7941 13.3365 18.5053 13.3333 21.3333C13.3333 25.6733 16.484 29.2773 19.8213 33.092C20.8773 34.3 21.9707 35.5493 22.944 36.8133C23.0686 36.9749 23.2285 37.1057 23.4116 37.1958C23.5947 37.2858 23.796 37.3326 24 37.3326C24.204 37.3326 24.4053 37.2858 24.5884 37.1958C24.7715 37.1057 24.9315 36.9749 25.056 36.8133C26.0293 35.5493 27.1227 34.3 28.1787 33.092C31.516 29.2773 34.6667 25.6733 34.6667 21.3333C34.6635 18.5053 33.5387 15.7941 31.539 13.7944C29.5393 11.7947 26.828 10.6698 24 10.6667ZM24 25.3333C23.2089 25.3333 22.4355 25.0987 21.7777 24.6592C21.1199 24.2197 20.6072 23.595 20.3045 22.8641C20.0017 22.1332 19.9225 21.3289 20.0769 20.553C20.2312 19.777 20.6122 19.0643 21.1716 18.5049C21.731 17.9455 22.4437 17.5645 23.2196 17.4102C23.9956 17.2558 24.7998 17.3351 25.5307 17.6378C26.2616 17.9406 26.8864 18.4532 27.3259 19.111C27.7654 19.7688 28 20.5422 28 21.3333C28 22.3942 27.5786 23.4116 26.8284 24.1618C26.0783 24.9119 25.0609 25.3333 24 25.3333Z" fill="#20212E"/>
</g>
</svg>
