<svg width="32" height="32" viewBox="0 0 32 32" fill="none" xmlns="http://www.w3.org/2000/svg">
<path d="M16 17.3333C15.5941 17.3286 15.1964 17.4483 14.8606 17.6764C14.5248 17.9045 14.2669 18.23 14.1216 18.6091C13.9764 18.9882 13.9508 19.4026 14.0482 19.7967C14.1457 20.1908 14.3615 20.5456 14.6667 20.8133V22.6667C14.6667 23.0203 14.8072 23.3594 15.0572 23.6095C15.3073 23.8595 15.6464 24 16 24C16.3536 24 16.6928 23.8595 16.9428 23.6095C17.1929 23.3594 17.3333 23.0203 17.3333 22.6667V20.8133C17.6385 20.5456 17.8544 20.1908 17.9518 19.7967C18.0493 19.4026 18.0236 18.9882 17.8784 18.6091C17.7331 18.23 17.4753 17.9045 17.1394 17.6764C16.8036 17.4483 16.4059 17.3286 16 17.3333ZM22.6667 12V9.33332C22.6667 7.56521 21.9643 5.86952 20.7141 4.61928C19.4638 3.36904 17.7681 2.66666 16 2.66666C14.2319 2.66666 12.5362 3.36904 11.286 4.61928C10.0357 5.86952 9.33334 7.56521 9.33334 9.33332V12C8.27248 12 7.25506 12.4214 6.50492 13.1716C5.75477 13.9217 5.33334 14.9391 5.33334 16V25.3333C5.33334 26.3942 5.75477 27.4116 6.50492 28.1617C7.25506 28.9119 8.27248 29.3333 9.33334 29.3333H22.6667C23.7275 29.3333 24.745 28.9119 25.4951 28.1617C26.2453 27.4116 26.6667 26.3942 26.6667 25.3333V16C26.6667 14.9391 26.2453 13.9217 25.4951 13.1716C24.745 12.4214 23.7275 12 22.6667 12ZM12 9.33332C12 8.27246 12.4214 7.25504 13.1716 6.5049C13.9217 5.75475 14.9391 5.33332 16 5.33332C17.0609 5.33332 18.0783 5.75475 18.8284 6.5049C19.5786 7.25504 20 8.27246 20 9.33332V12H12V9.33332ZM24 25.3333C24 25.6869 23.8595 26.0261 23.6095 26.2761C23.3594 26.5262 23.0203 26.6667 22.6667 26.6667H9.33334C8.97972 26.6667 8.64058 26.5262 8.39053 26.2761C8.14049 26.0261 8.00001 25.6869 8.00001 25.3333V16C8.00001 15.6464 8.14049 15.3072 8.39053 15.0572C8.64058 14.8071 8.97972 14.6667 9.33334 14.6667H22.6667C23.0203 14.6667 23.3594 14.8071 23.6095 15.0572C23.8595 15.3072 24 15.6464 24 16V25.3333Z" fill="#20212E"/>
</svg>
