<svg width="32" height="32" viewBox="0 0 32 32" fill="none" xmlns="http://www.w3.org/2000/svg">
<path d="M9.42661 15.5391C10.4961 15.5383 11.5321 15.1712 12.3583 14.5003C13.1845 13.8294 13.7497 12.8964 13.9576 11.86C14.1656 10.8236 14.0033 9.7481 13.4986 8.81664C12.9939 7.88518 12.1779 7.15542 11.1896 6.75166C10.2013 6.34791 9.10191 6.29514 8.07867 6.60236C7.05543 6.90958 6.17166 7.55777 5.57791 8.43651C4.98417 9.31524 4.71718 10.3702 4.82244 11.4216C4.9277 12.473 5.39868 13.4558 6.15516 14.2026C6.58451 14.6272 7.09453 14.9639 7.65594 15.1932C8.21735 15.4226 8.81909 15.5401 9.42661 15.5391ZM8.13502 9.69467C8.43383 9.39949 8.82701 9.21579 9.24754 9.17489C9.66808 9.13398 10.09 9.23839 10.4413 9.47033C10.7927 9.70227 11.0517 10.0474 11.1744 10.4469C11.2971 10.8464 11.2757 11.2755 11.114 11.6612C10.9523 12.0469 10.6602 12.3652 10.2875 12.562C9.91484 12.7588 9.48462 12.8219 9.07017 12.7404C8.65572 12.659 8.28267 12.4381 8.0146 12.1154C7.74652 11.7927 7.6 11.3881 7.6 10.9706C7.59934 10.7336 7.64629 10.4987 7.73812 10.2797C7.82996 10.0607 7.96486 9.86183 8.13502 9.69467ZM22.5734 16.4585C21.503 16.4585 20.4657 16.8252 19.6383 17.496C18.8108 18.1668 18.2444 19.1004 18.0356 20.1375C17.8268 21.1746 17.9884 22.2512 18.493 23.1838C18.9976 24.1165 19.8138 24.8474 20.8028 25.2521C21.7917 25.6567 22.892 25.7101 23.9164 25.4032C24.9407 25.0962 25.8256 24.4479 26.4202 23.5686C27.0149 22.6894 27.2826 21.6336 27.1777 20.5813C27.0728 19.5289 26.6018 18.545 25.8449 17.7973C25.4163 17.3715 24.9064 17.0339 24.3449 16.8042C23.7833 16.5744 23.1812 16.4569 22.5734 16.4585ZM23.865 22.3052C23.522 22.6415 23.0581 22.8298 22.5748 22.8289C22.0916 22.828 21.6284 22.6379 21.2867 22.3004C20.945 21.9628 20.7526 21.5052 20.7517 21.0278C20.7508 20.5504 20.9414 20.0921 21.2818 19.7532C21.4512 19.5847 21.6526 19.4508 21.8745 19.3592C22.0964 19.2677 22.3344 19.2204 22.5748 19.2199C22.8153 19.2195 23.0534 19.266 23.2757 19.3567C23.4979 19.4474 23.6998 19.5805 23.8698 19.7485C24.0398 19.9165 24.1746 20.1159 24.2664 20.3355C24.3582 20.555 24.4052 20.7903 24.4048 21.0278C24.4043 21.2654 24.3564 21.5005 24.2638 21.7197C24.1711 21.9389 24.0356 22.1379 23.8649 22.3052L23.865 22.3052ZM25.3073 6.80507C25.4373 6.9335 25.5404 7.08597 25.6108 7.25377C25.6812 7.42158 25.7174 7.60143 25.7174 7.78306C25.7174 7.96469 25.6812 8.14454 25.6108 8.31234C25.5404 8.48015 25.4373 8.63262 25.3073 8.76105L8.67262 25.1948C8.40972 25.4525 8.05416 25.5968 7.68379 25.5961C7.31342 25.5954 6.95842 25.4497 6.69654 25.191C6.43465 24.9322 6.28721 24.5815 6.2865 24.2156C6.28579 23.8498 6.43187 23.4985 6.69276 23.2388L23.3275 6.80507C23.59 6.5457 23.9461 6.39999 24.3174 6.39999C24.6887 6.39999 25.0448 6.5457 25.3073 6.80507Z" fill="#20212E"/>
</svg>
