<svg width="32" height="32" viewBox="0 0 32 32" fill="none" xmlns="http://www.w3.org/2000/svg">
<path d="M13.7203 5.92C13.7203 5.62296 13.8407 5.33808 14.055 5.12804C14.2693 4.918 14.56 4.8 14.863 4.8H17.1484C17.4515 4.8 17.7421 4.918 17.9564 5.12804C18.1707 5.33808 18.2911 5.62296 18.2911 5.92C18.2911 6.21704 18.1707 6.50192 17.9564 6.71196C17.7421 6.922 17.4515 7.04 17.1484 7.04H14.863C14.56 7.04 14.2693 6.922 14.055 6.71196C13.8407 6.50192 13.7203 6.21704 13.7203 5.92ZM31.8778 22.1039C31.1011 23.6383 29.9017 24.9288 28.4153 25.8294C26.9289 26.73 25.215 27.2048 23.4675 27.1999H8.54392C6.79451 27.2069 5.07813 26.7331 3.58954 25.8324C2.10095 24.9316 0.899756 23.64 0.12225 22.1039C0.0341529 21.9326 -0.00755542 21.7419 0.00112381 21.5503C0.00980305 21.3586 0.0685789 21.1723 0.171816 21.0093C0.275052 20.8463 0.419288 20.712 0.590692 20.6193C0.762096 20.5266 0.95492 20.4786 1.15068 20.4799H2.36193C2.77541 17.8634 3.92465 15.4116 5.68069 13.3997C7.43673 11.3877 9.73008 9.89517 12.3034 9.08959C14.7179 8.35011 17.305 8.35011 19.7195 9.08959C22.2907 9.89691 24.5816 11.3902 26.3355 13.402C28.0894 15.4139 29.237 17.8648 29.6495 20.4799H30.8608C31.0556 20.4805 31.247 20.5299 31.4168 20.6234C31.5866 20.7169 31.7293 20.8513 31.8312 21.0141C31.9331 21.1768 31.9908 21.3623 31.999 21.5531C32.0072 21.7438 31.9654 21.9334 31.8778 22.1039ZM4.65875 20.4799H27.3527C26.9387 18.3507 25.9496 16.3692 24.4884 14.742C23.0273 13.1149 21.1476 11.9016 19.0453 11.2288C17.0702 10.6215 14.9527 10.6215 12.9776 11.2288C10.8732 11.9 8.9911 13.1125 7.52783 14.7397C6.06457 16.367 5.07374 18.3494 4.65875 20.4799ZM28.6554 22.7199H3.31037C3.97639 23.4288 4.78565 23.994 5.68667 24.3797C6.58769 24.7653 7.56074 24.9629 8.54392 24.9599H23.4675C24.4507 24.9629 25.4237 24.7653 26.3248 24.3797C27.2258 23.994 28.035 23.4288 28.7011 22.7199H28.6554Z" fill="#20212E"/>
</svg>
