<svg width="32" height="32" viewBox="0 0 32 32" fill="none" xmlns="http://www.w3.org/2000/svg">
<path d="M16.4 16.2933C17.1114 15.6775 17.6821 14.9159 18.0732 14.06C18.4643 13.2042 18.6667 12.2743 18.6667 11.3333C18.6667 9.56523 17.9643 7.86954 16.7141 6.61929C15.4638 5.36905 13.7681 4.66667 12 4.66667C10.2319 4.66667 8.53621 5.36905 7.28596 6.61929C6.03572 7.86954 5.33334 9.56523 5.33334 11.3333C5.33333 12.2743 5.53575 13.2042 5.92684 14.06C6.31794 14.9159 6.88857 15.6775 7.60001 16.2933C5.73353 17.1385 4.14996 18.5034 3.03865 20.2247C1.92734 21.9461 1.33531 23.9511 1.33334 26C1.33334 26.3536 1.47382 26.6928 1.72387 26.9428C1.97392 27.1929 2.31305 27.3333 2.66668 27.3333C3.0203 27.3333 3.35944 27.1929 3.60949 26.9428C3.85953 26.6928 4.00001 26.3536 4.00001 26C4.00001 23.8783 4.84287 21.8434 6.34316 20.3432C7.84345 18.8429 9.87828 18 12 18C14.1217 18 16.1566 18.8429 17.6569 20.3432C19.1572 21.8434 20 23.8783 20 26C20 26.3536 20.1405 26.6928 20.3905 26.9428C20.6406 27.1929 20.9797 27.3333 21.3333 27.3333C21.687 27.3333 22.0261 27.1929 22.2762 26.9428C22.5262 26.6928 22.6667 26.3536 22.6667 26C22.6647 23.9511 22.0727 21.9461 20.9614 20.2247C19.8501 18.5034 18.2665 17.1385 16.4 16.2933ZM12 15.3333C11.2089 15.3333 10.4355 15.0987 9.77773 14.6592C9.11993 14.2197 8.60724 13.595 8.30449 12.8641C8.00174 12.1332 7.92253 11.3289 8.07687 10.553C8.23121 9.77705 8.61217 9.06432 9.17158 8.50491C9.73099 7.9455 10.4437 7.56454 11.2196 7.4102C11.9956 7.25586 12.7998 7.33507 13.5307 7.63782C14.2616 7.94057 14.8864 8.45326 15.3259 9.11106C15.7654 9.76885 16 10.5422 16 11.3333C16 12.3942 15.5786 13.4116 14.8284 14.1618C14.0783 14.9119 13.0609 15.3333 12 15.3333ZM24.9867 15.76C25.84 14.7991 26.3974 13.6121 26.5917 12.3418C26.7861 11.0715 26.6092 9.7721 26.0824 8.6C25.5555 7.42791 24.7011 6.43307 23.622 5.73524C22.5429 5.03741 21.2851 4.66633 20 4.66667C19.6464 4.66667 19.3073 4.80715 19.0572 5.0572C18.8072 5.30724 18.6667 5.64638 18.6667 6.00001C18.6667 6.35363 18.8072 6.69277 19.0572 6.94281C19.3073 7.19286 19.6464 7.33334 20 7.33334C21.0609 7.33334 22.0783 7.75477 22.8284 8.50491C23.5786 9.25506 24 10.2725 24 11.3333C23.9981 12.0337 23.8124 12.7212 23.4614 13.3272C23.1104 13.9333 22.6065 14.4365 22 14.7867C21.8023 14.9007 21.6372 15.0636 21.5205 15.2597C21.4038 15.4558 21.3393 15.6785 21.3333 15.9067C21.3278 16.133 21.3799 16.3571 21.4849 16.5577C21.5899 16.7583 21.7442 16.9289 21.9333 17.0533L22.4533 17.4L22.6267 17.4933C24.2339 18.2556 25.5898 19.4613 26.5346 20.9684C27.4795 22.4755 27.9741 24.2213 27.96 26C27.96 26.3536 28.1005 26.6928 28.3505 26.9428C28.6006 27.1929 28.9397 27.3333 29.2933 27.3333C29.647 27.3333 29.9861 27.1929 30.2362 26.9428C30.4862 26.6928 30.6267 26.3536 30.6267 26C30.6376 23.9539 30.1251 21.939 29.138 20.1468C28.1508 18.3545 26.7218 16.8444 24.9867 15.76Z" fill="#20212E"/>
</svg>
