<svg width="18" height="19" viewBox="0 0 18 19" fill="none" xmlns="http://www.w3.org/2000/svg">
<path d="M15.1875 7H14.625V5.73125C14.6219 2.65144 12.0874 0.123313 9.01875 0.125001C5.93594 0.126688 3.39769 2.681 3.41875 5.775V7H2.8125C1.74375 7 0.875 7.8875 0.875 8.9875V16.8875C0.875 17.9875 1.74375 18.875 2.8125 18.875H15.1875C16.2563 18.875 17.125 17.9875 17.125 16.8875V8.9875C17.125 7.8875 16.2563 7 15.1875 7ZM9.625 13.1188V14.5C9.625 14.8438 9.34375 15.125 9 15.125C8.65625 15.125 8.375 14.8438 8.375 14.5V13.1188C7.825 12.875 7.4375 12.325 7.4375 11.6875C7.4375 10.825 8.1375 10.125 9 10.125C9.8625 10.125 10.5625 10.825 10.5625 11.6875C10.5625 12.325 10.175 12.875 9.625 13.1188ZM12.125 7H5.91875V5.75625C5.90569 4.04263 7.31081 2.62669 9.01875 2.625C10.7196 2.62331 12.1243 4.02469 12.125 5.73125V7Z" fill="#219653"/>
</svg>
