<svg width="40" height="45" viewBox="0 0 40 45" fill="none" xmlns="http://www.w3.org/2000/svg">
<path d="M34.85 16.5H33.5V13.455C33.4927 6.06345 27.4097 -0.00404797 20.045 2.02633e-06C12.6463 0.00405203 6.55445 6.1344 6.605 13.56V16.5H5.15C2.585 16.5 0.5 18.63 0.5 21.27V40.23C0.5 42.87 2.585 45 5.15 45H34.85C37.415 45 39.5 42.87 39.5 40.23V21.27C39.5 18.63 37.415 16.5 34.85 16.5ZM21.5 31.185V34.5C21.5 35.325 20.825 36 20 36C19.175 36 18.5 35.325 18.5 34.5V31.185C17.18 30.6 16.25 29.28 16.25 27.75C16.25 25.68 17.93 24 20 24C22.07 24 23.75 25.68 23.75 27.75C23.75 29.28 22.82 30.6 21.5 31.185ZM27.5 16.5H12.605V13.515C12.5737 9.4023 15.946 6.00405 20.045 6C24.1271 5.99595 27.4982 9.35925 27.5 13.455V16.5Z" fill="#EB5757"/>
</svg>
