<svg width="100" height="70" viewBox="0 0 100 70" fill="none" xmlns="http://www.w3.org/2000/svg">
<g clip-path="url(#clip0_321_60)">
<path d="M50.6237 41.9885C50.1477 41.7189 49.5101 41.6417 48.7301 41.7584L41.9631 42.7666C42.0653 42.5734 42.1695 42.396 42.275 42.2351C42.6917 41.5421 43.5152 40.5168 44.7232 39.1889C45.9482 37.8412 46.8298 36.8423 47.3441 36.2205C47.8729 35.5803 48.3635 34.7251 48.8019 33.6793C49.2496 32.6112 49.3861 31.4639 49.2081 30.2692C49.0947 29.5056 48.8382 28.7797 48.4472 28.1111C48.0569 27.4438 47.5577 26.8695 46.9643 26.404C46.3715 25.9392 45.703 25.597 44.9757 25.3866C43.8759 25.082 42.5822 25.0365 41.131 25.2534C39.9244 25.4334 38.8813 25.7743 38.03 26.2682C37.1775 26.7627 36.4885 27.3568 35.9827 28.0346C35.4764 28.7124 35.1229 29.4463 34.9317 30.2157C34.7399 30.9852 34.6937 31.7164 34.7939 32.389C34.8836 32.9883 35.1361 33.4453 35.5449 33.7479C35.9537 34.0512 36.4331 34.1646 36.9672 34.0848C37.5764 33.9945 38.0201 33.7222 38.2859 33.2771C38.5252 32.8769 38.7125 32.3283 38.8437 31.6465C39.0013 30.821 39.0837 30.5725 39.12 30.496C39.6224 29.4014 40.4162 28.7876 41.5477 28.6194C42.0765 28.5403 42.5895 28.5878 43.0715 28.7592C43.5488 28.9293 43.9537 29.2115 44.2748 29.5992C44.5946 29.9856 44.7977 30.4571 44.8788 31.0004C44.9546 31.5068 44.9078 32.0534 44.7403 32.623C44.5695 33.2039 44.2761 33.7987 43.8693 34.3908C43.4565 34.9915 42.9099 35.6185 42.2499 36.2502C41.853 36.6135 41.2345 37.317 40.3602 38.401C39.5024 39.4645 38.5397 40.7443 37.4973 42.2074C37.2316 42.5892 37.008 43.0949 36.832 43.7108C36.6513 44.3437 36.5907 44.8343 36.6467 45.2095C36.7344 45.7996 37.0351 46.2862 37.5401 46.6554C37.9252 46.9376 38.3927 47.0794 38.9334 47.0794C39.0989 47.0794 39.2723 47.0662 39.4516 47.0392L49.7019 45.5115C50.3864 45.4093 50.8842 45.1442 51.1809 44.7242C51.4749 44.3075 51.5851 43.8314 51.5073 43.3086C51.4189 42.7158 51.1215 42.2714 50.6237 41.9892V41.9885Z" fill="#353635"/>
<path d="M68.3901 36.4222C68.2754 35.6534 67.9292 35.182 67.3609 35.0204C66.865 34.88 66.234 34.8648 65.4857 34.9769L65.1494 35.027L63.5828 24.5116C63.4535 23.6419 63.1535 23.0024 62.692 22.6094C62.2199 22.2079 61.5836 22.0635 60.8029 22.1802C60.2992 22.2553 59.8864 22.492 59.5778 22.8843C59.2983 23.2384 58.9692 23.7712 58.5723 24.5143L52.6638 35.4859C52.4997 35.786 52.3612 36.0398 52.2498 36.2462C52.1364 36.4552 52.0269 36.6754 51.924 36.9003C51.8152 37.1376 51.7394 37.3644 51.6979 37.5735C51.6537 37.793 51.6471 38.0093 51.6781 38.2157C51.7915 38.9766 52.135 39.5528 52.6981 39.928C53.2526 40.2979 54.0135 40.4146 54.9591 40.2735L61.6865 39.2713L62.0333 41.5988C62.1467 42.3584 62.4183 42.9215 62.843 43.2736C63.1904 43.5617 63.5953 43.7061 64.0489 43.7061C64.1604 43.7061 64.2751 43.6976 64.3918 43.6798C64.9958 43.5894 65.4573 43.3112 65.7632 42.8529C66.0633 42.4026 66.1569 41.7801 66.0408 41.0008L65.694 38.6733L66.2808 38.5862C67.049 38.4715 67.5969 38.2506 67.9569 37.9111C68.3387 37.5504 68.4844 37.0499 68.3914 36.4229L68.3901 36.4222ZM61.1418 35.6244L55.9389 36.3998L60.0941 28.5944L61.1418 35.6244Z" fill="#353635"/>
<path d="M78.1815 30.9252C77.7641 28.651 77.0751 26.4376 76.1335 24.3468C71.9466 14.8936 61.9904 8.4906 51.7526 8.4906C50.7312 8.4906 49.7046 8.55456 48.6806 8.68775C44.2841 9.16908 40.0622 10.7865 36.5142 13.2999C36.3837 13.3903 36.3784 13.3982 36.2485 13.4885C35.5436 14.252 35.1843 15.2094 35.4263 16.2921C35.6603 17.3563 35.4981 18.3295 34.9397 19.1781C34.5085 19.846 34.0245 20.5106 33.4291 21.0216C32.144 22.128 29.0747 24.6178 27.1382 26.1712C26.1485 26.9664 25.4595 27.5196 25.4595 27.5196L24.6907 27.5862L24.8581 26.884L25.7575 25.9635L32.0082 19.577C32.1493 19.4359 32.351 19.3165 32.4018 19.1379C32.4255 19.0713 32.4361 18.9809 32.4361 18.8827C32.444 18.6117 32.2152 18.3717 31.9363 18.3717H31.9205C31.8249 18.3717 31.7319 18.3875 31.6627 18.4007C31.6337 18.406 31.6093 18.4139 31.5882 18.4376C31.5776 18.4429 31.5723 18.4429 31.5644 18.4455C31.4794 18.5121 31.4049 18.6236 31.3251 18.7086C28.958 20.9959 24.2575 25.5264 24.0662 25.7097L24.061 25.7149L23.1563 26.0716L23.3449 25.6009L23.5229 25.1644C23.5229 25.1644 28.207 20.1533 30.5213 17.626C30.5398 17.6075 30.5583 17.5831 30.5747 17.5515C30.7238 17.2323 30.4284 16.8677 30.1092 16.8677C30.0453 16.8677 29.984 16.8835 29.9233 16.9132C29.8943 16.9264 29.8673 16.9448 29.8514 16.9666C27.367 19.3337 22.4436 24.1061 22.4436 24.1061L21.5442 24.4866L21.8818 23.5714C21.8818 23.5714 26.4571 18.6453 28.7496 16.1873C28.8611 16.0699 29.0318 15.9769 29.0556 15.8391C29.0688 15.7699 29.0767 15.6769 29.0767 15.5787C29.082 15.3103 28.8479 15.0762 28.5769 15.0762H28.5532C28.4549 15.0815 28.3699 15.0894 28.3059 15.1132C28.1279 15.1692 28.0105 15.371 27.8694 15.5226L20.7022 22.7986L20 22.9819L20.0508 22.2131C20.0508 22.2131 24.7645 16.0949 26.4004 14.1215C26.8975 13.5149 27.5549 13.023 28.2195 12.5786C28.8288 12.1639 29.5125 11.9509 30.2517 11.9509C30.5226 11.9509 30.8049 11.9799 31.0923 12.0386C31.3027 12.0814 31.5071 12.1025 31.7069 12.1025C32.1031 12.1025 32.4809 12.0201 32.8317 11.8685C33.4436 11.4109 34.0713 10.9777 34.7043 10.5623C39.4233 7.58926 44.6816 6.19275 49.8688 6.19275C61.1734 6.19275 72.1484 12.8186 76.5133 24.1872C77.3435 26.3631 77.8993 28.6319 78.1808 30.9252H78.1815Z" fill="#353535"/>
<path d="M79.9953 47.8079C80.0513 49.1537 79.6333 50.388 79.0056 51.5478C77.5108 54.3118 75.3851 56.4343 72.449 57.6205C71.8133 57.8756 71.0709 57.9745 70.3713 57.9745C70.281 57.9745 70.1907 57.9719 70.1003 57.9693C70.0417 57.9666 69.9863 57.9666 69.9276 57.9666C69.6137 57.9666 69.3183 57.9983 69.0394 58.0596C68.3662 58.5436 67.6779 58.9985 66.975 59.435L66.9671 59.4403C66.8102 59.5385 66.5095 59.7225 66.5095 59.7225L65.7941 60.1451C61.3863 62.6322 56.5691 63.8078 51.8131 63.8078C40.5111 63.8078 29.5414 57.182 25.1791 45.816C24.349 43.6375 23.7879 41.3687 23.5063 39.0754C23.9237 41.3496 24.6154 43.563 25.5569 45.6565C29.7412 55.1123 39.6975 61.5126 49.9326 61.5126C50.9566 61.5126 51.9832 61.4487 53.0079 61.3155C57.4051 60.8315 61.5993 59.0836 64.1932 57.3521C64.3132 57.2802 64.4352 57.2163 64.5552 57.1444C64.6086 57.1128 64.6587 57.0804 64.7147 57.0488C64.7279 57.0382 64.7385 57.0356 64.7516 57.0251C65.0523 56.8391 65.3503 56.6446 65.6372 56.4481C66.2115 55.7914 66.4752 55.0305 66.435 54.1101C66.3658 52.5968 67.0066 51.3223 67.877 50.1519C69.5689 47.8805 71.6676 46.1193 74.3862 45.2417C75.1945 44.9786 76.086 44.8507 76.9425 44.8507H77.073C78.7939 44.8692 79.9274 46.0824 79.9966 47.8086L79.9953 47.8079Z" fill="#353535"/>
<path d="M45.7565 60.0706C47.1345 60.3159 48.5324 60.4478 49.9341 60.4478C50.9186 60.4478 51.9069 60.3852 52.8722 60.2612C52.8788 60.2605 52.8848 60.2599 52.8914 60.2592C57.3328 59.77 61.337 57.9792 63.6032 56.4666C63.621 56.4547 63.6388 56.4435 63.6566 56.433C63.7114 56.4007 63.7674 56.3697 63.8228 56.338C63.8828 56.3044 63.9428 56.2708 64.0015 56.2352C64.0068 56.2319 64.012 56.2286 64.018 56.2253C64.0397 56.2128 64.0602 56.2002 64.0806 56.1877C64.1063 56.1719 64.1327 56.1561 64.1591 56.1402C64.1657 56.1363 64.1723 56.1323 64.1789 56.1277C64.1822 56.1257 64.1855 56.1237 64.1887 56.1211C64.4531 55.9563 64.6925 55.802 64.9167 55.6516C65.2576 55.2191 65.3987 54.7523 65.3723 54.1575C65.2793 52.1155 66.2697 50.5304 67.024 49.5137C69.0172 46.8413 71.3184 45.1125 74.058 44.2263C74.2914 44.1512 74.5321 44.0859 74.7773 44.0298C76.2767 40.0764 76.8174 35.7002 76.1508 31.2291C75.1433 24.4701 71.5643 18.5069 66.0725 14.4393C63.2281 12.3327 60.046 10.8663 56.7004 10.081C55.0745 9.73877 53.4169 9.55481 51.7533 9.55481C50.7696 9.55481 49.7812 9.61745 48.8159 9.74141C48.8093 9.74207 48.8034 9.74273 48.7968 9.74338C44.6006 10.2043 40.5654 11.734 37.1281 14.1677C37.1222 14.1716 37.1169 14.1756 37.111 14.1795C37.0589 14.2151 37.0312 14.2349 37.0042 14.2547C36.989 14.2659 36.9739 14.2771 36.9567 14.289C36.482 14.8415 36.3204 15.4211 36.4648 16.062C36.7596 17.4005 36.5393 18.6803 35.8312 19.7577C35.4211 20.3913 34.856 21.199 34.1228 21.828C32.9043 22.8777 29.9919 25.2448 27.8035 26.9987C26.9134 27.7161 26.2673 28.2343 26.1459 28.3319C25.2485 31.6366 25.0026 35.1727 25.5387 38.7708C27.166 49.6937 35.514 57.9798 45.7565 60.07V60.0706ZM47.9053 15.2727C48.9023 15.1244 49.8979 15.0512 50.8876 15.0512C55.1292 15.0512 59.2449 16.4016 62.7171 18.9724C66.9983 22.1432 69.7887 26.7917 70.5739 32.0612C72.1946 42.9393 64.6635 53.1078 53.7854 54.7292C52.7925 54.8769 51.808 54.9488 50.8328 54.9488C41.1245 54.9481 32.5905 47.8264 31.1175 37.9407C29.4968 27.0627 37.0279 16.8941 47.906 15.2727H47.9053Z" fill="#353535"/>
</g>
<defs>
<clipPath id="clip0_321_60">
<rect width="60" height="57.6144" fill="white" transform="translate(20 6.19275)"/>
</clipPath>
</defs>
</svg>
