<svg width="18" height="37" viewBox="0 0 18 37" fill="none" xmlns="http://www.w3.org/2000/svg">
<path d="M17.6279 1.6456L15.2118 0.649869C14.9743 0.551161 14.7195 0.500224 14.4621 0.500001C14.2047 0.499778 13.9498 0.550273 13.7121 0.64857C13.4734 0.745948 13.2565 0.889517 13.074 1.07094C12.8915 1.25236 12.7471 1.46802 12.6492 1.70539L11.6921 4.00233H2.88779C2.78423 4.00208 2.68212 4.0265 2.58999 4.07354C2.49787 4.12059 2.41841 4.18888 2.35828 4.27271C2.29736 4.35597 2.25738 4.45252 2.24168 4.55429C2.22599 4.65606 2.23503 4.76009 2.26807 4.85767C3.18638 7.57904 3.01022 10.5481 1.77647 13.1433L0.969772 14.8475C-0.00838463 16.892 -0.255556 19.2071 0.269117 21.4103C0.793791 23.6134 2.05889 25.5725 3.8553 26.9639C4.76844 27.6679 5.82147 28.1712 6.9448 28.4406V32.6003H5.63735C4.77068 32.601 3.93969 32.9436 3.32686 33.5529C2.71402 34.1622 2.36943 34.9884 2.36874 35.85C2.36874 36.0224 2.43761 36.1877 2.56021 36.3096C2.68281 36.4315 2.84908 36.5 3.02246 36.5H14.7895C14.9629 36.5 15.1291 36.4315 15.2517 36.3096C15.3743 36.1877 15.4432 36.0224 15.4432 35.85C15.4432 34.0575 13.9776 32.6003 12.1746 32.6003H10.8671V28.4406C11.9909 28.1723 13.0441 27.6689 13.9566 26.9639C15.7528 25.5724 17.0178 23.6132 17.5425 21.4102C18.0671 19.2071 17.8201 16.892 16.8422 14.8475L16.0368 13.1433C14.803 10.5481 14.6269 7.57904 15.5452 4.85767C15.5782 4.76001 15.5873 4.65593 15.5719 4.55406C15.5564 4.45218 15.5167 4.35544 15.4561 4.27184C15.3956 4.18824 15.3158 4.12019 15.2236 4.07333C15.1313 4.02646 15.0291 4.00212 14.9255 4.00233H13.1081L13.8586 2.20196C13.8908 2.12266 13.9386 2.05053 13.9991 1.98976C14.0597 1.929 14.1318 1.88083 14.2112 1.84804C14.2907 1.81526 14.3759 1.79852 14.462 1.7988C14.548 1.79908 14.6331 1.81638 14.7123 1.84968L17.1298 2.84541C17.2876 2.90048 17.4607 2.8933 17.6134 2.82535C17.7661 2.7574 17.8867 2.63385 17.9505 2.48012C18.0144 2.32639 18.0165 2.15419 17.9565 1.99895C17.8965 1.84372 17.7789 1.71725 17.6279 1.6456ZM11.1509 5.30224L8.98441 10.5019H3.96905C4.27136 8.77361 4.2005 7.00118 3.76117 5.30224H11.1509ZM12.1746 33.9002C13.027 33.9002 13.754 34.4435 14.0233 35.2001H3.78863C4.05796 34.4435 4.7849 33.9002 5.63735 33.9002H7.59852C7.7719 33.9002 7.93818 33.8317 8.06077 33.7098C8.18337 33.5879 8.25224 33.4226 8.25224 33.2502V28.6746C8.34115 28.6811 8.43006 28.6707 8.51766 28.6746C8.64709 28.6811 8.77522 28.7058 8.90597 28.7058C9.03671 28.7058 9.16484 28.6798 9.29428 28.6746C9.38319 28.6707 9.47209 28.6811 9.55969 28.6746V33.2502C9.55969 33.4226 9.62856 33.5879 9.75116 33.7098C9.87376 33.8317 10.04 33.9002 10.2134 33.9002H12.1746ZM14.8548 13.697L15.6602 15.4012C16.5109 17.1797 16.7258 19.1936 16.2694 21.11C15.813 23.0263 14.7125 24.7305 13.1499 25.9409C12.2523 26.644 11.1921 27.1128 10.0657 27.3045C9.29688 27.4254 8.51375 27.4254 7.74496 27.3045C6.61873 27.1123 5.55859 26.6436 4.66069 25.9409C3.09832 24.7304 1.99802 23.0262 1.5416 21.1099C1.08518 19.1936 1.29994 17.1798 2.1504 15.4012L2.95578 13.697C3.24734 13.0809 3.48137 12.4465 3.66703 11.8018H14.1423C14.3293 12.4465 14.562 13.0809 14.8548 13.697ZM14.0521 5.30224C13.6127 7.00118 13.5419 8.77361 13.8442 10.5019H10.4004L12.5668 5.30224H14.0521Z" fill="#20212E"/>
</svg>
