<svg width="36" height="37" viewBox="0 0 36 37" fill="none" xmlns="http://www.w3.org/2000/svg">
<g clip-path="url(#clip0_377_283)">
<path d="M26.6279 1.6456L24.2118 0.649869C23.9743 0.551161 23.7195 0.500224 23.4621 0.500001C23.2047 0.499778 22.9498 0.550273 22.7121 0.64857C22.4734 0.745948 22.2565 0.889517 22.074 1.07094C21.8915 1.25236 21.7471 1.46802 21.6492 1.70539L20.6921 4.00233H11.8878C11.7842 4.00208 11.6821 4.0265 11.59 4.07354C11.4979 4.12059 11.4184 4.18888 11.3583 4.27271C11.2974 4.35597 11.2574 4.45252 11.2417 4.55429C11.226 4.65606 11.235 4.76009 11.2681 4.85767C12.1864 7.57904 12.0102 10.5481 10.7765 13.1433L9.96977 14.8475C8.99162 16.892 8.74444 19.2071 9.26912 21.4103C9.79379 23.6134 11.0589 25.5725 12.8553 26.9639C13.7684 27.6679 14.8215 28.1712 15.9448 28.4406V32.6003H14.6374C13.7707 32.601 12.9397 32.9436 12.3269 33.5529C11.714 34.1622 11.3694 34.9884 11.3687 35.85C11.3687 36.0224 11.4376 36.1877 11.5602 36.3096C11.6828 36.4315 11.8491 36.5 12.0225 36.5H23.7895C23.9629 36.5 24.1291 36.4315 24.2517 36.3096C24.3743 36.1877 24.4432 36.0224 24.4432 35.85C24.4432 34.0575 22.9776 32.6003 21.1746 32.6003H19.8671V28.4406C20.9909 28.1723 22.0441 27.6689 22.9566 26.9639C24.7528 25.5724 26.0178 23.6132 26.5425 21.4102C27.0671 19.2071 26.8201 16.892 25.8422 14.8475L25.0368 13.1433C23.803 10.5481 23.6269 7.57904 24.5452 4.85767C24.5782 4.76001 24.5873 4.65593 24.5719 4.55406C24.5564 4.45218 24.5167 4.35544 24.4561 4.27184C24.3956 4.18824 24.3158 4.12019 24.2236 4.07333C24.1313 4.02646 24.0291 4.00212 23.9255 4.00233H22.1081L22.8586 2.20196C22.8908 2.12266 22.9386 2.05053 22.9991 1.98976C23.0597 1.929 23.1318 1.88083 23.2112 1.84804C23.2907 1.81526 23.3759 1.79852 23.462 1.7988C23.548 1.79908 23.6331 1.81638 23.7123 1.84968L26.1298 2.84541C26.2876 2.90048 26.4607 2.8933 26.6134 2.82535C26.7661 2.7574 26.8867 2.63385 26.9505 2.48012C27.0144 2.32639 27.0165 2.15419 26.9565 1.99895C26.8965 1.84372 26.7789 1.71725 26.6279 1.6456ZM20.1509 5.30224L17.9844 10.5019H12.9691C13.2714 8.77361 13.2005 7.00118 12.7612 5.30224H20.1509ZM21.1746 33.9002C22.027 33.9002 22.754 34.4435 23.0233 35.2001H12.7886C13.058 34.4435 13.7849 33.9002 14.6374 33.9002H16.5985C16.7719 33.9002 16.9382 33.8317 17.0608 33.7098C17.1834 33.5879 17.2522 33.4226 17.2522 33.2502V28.6746C17.3412 28.6811 17.4301 28.6707 17.5177 28.6746C17.6471 28.6811 17.7752 28.7058 17.906 28.7058C18.0367 28.7058 18.1648 28.6798 18.2943 28.6746C18.3832 28.6707 18.4721 28.6811 18.5597 28.6746V33.2502C18.5597 33.4226 18.6286 33.5879 18.7512 33.7098C18.8738 33.8317 19.04 33.9002 19.2134 33.9002H21.1746ZM23.8548 13.697L24.6602 15.4012C25.5109 17.1797 25.7258 19.1936 25.2694 21.11C24.813 23.0263 23.7125 24.7305 22.1499 25.9409C21.2523 26.644 20.1921 27.1128 19.0657 27.3045C18.2969 27.4254 17.5138 27.4254 16.745 27.3045C15.6187 27.1123 14.5586 26.6436 13.6607 25.9409C12.0983 24.7304 10.998 23.0262 10.5416 21.1099C10.0852 19.1936 10.2999 17.1798 11.1504 15.4012L11.9558 13.697C12.2473 13.0809 12.4814 12.4465 12.667 11.8018H23.1423C23.3293 12.4465 23.562 13.0809 23.8548 13.697ZM23.0521 5.30224C22.6127 7.00118 22.5419 8.77361 22.8442 10.5019H19.4004L21.5668 5.30224H23.0521Z" fill="#20212E"/>
</g>
<defs>
<clipPath id="clip0_377_283">
<rect width="36" height="36" fill="white" transform="translate(0 0.5)"/>
</clipPath>
</defs>
</svg>
