<svg width="20" height="20" viewBox="0 0 20 20" fill="none" xmlns="http://www.w3.org/2000/svg">
<path d="M19.2846 17.7704L15.6591 14.1556C16.8288 12.6654 17.4636 10.8251 17.4612 8.93061C17.4612 7.24342 16.9609 5.59412 16.0235 4.19127C15.0862 2.78843 13.7539 1.69504 12.1951 1.04938C10.6364 0.403721 8.92115 0.234787 7.26638 0.563941C5.61161 0.893095 4.0916 1.70555 2.89858 2.89858C1.70555 4.0916 0.893095 5.61161 0.563941 7.26638C0.234787 8.92115 0.403721 10.6364 1.04938 12.1951C1.69504 13.7539 2.78843 15.0862 4.19127 16.0235C5.59412 16.9609 7.24342 17.4612 8.93061 17.4612C10.8251 17.4636 12.6654 16.8288 14.1556 15.6591L17.7704 19.2846C17.8696 19.3846 17.9875 19.4639 18.1174 19.518C18.2474 19.5722 18.3868 19.6 18.5275 19.6C18.6683 19.6 18.8077 19.5722 18.9376 19.518C19.0675 19.4639 19.1855 19.3846 19.2846 19.2846C19.3846 19.1855 19.4639 19.0675 19.518 18.9376C19.5722 18.8077 19.6 18.6683 19.6 18.5275C19.6 18.3868 19.5722 18.2474 19.518 18.1174C19.4639 17.9875 19.3846 17.8696 19.2846 17.7704ZM2.53267 8.93061C2.53267 7.66522 2.90791 6.42824 3.61092 5.37611C4.31394 4.32397 5.31316 3.50393 6.48223 3.01969C7.6513 2.53544 8.93771 2.40874 10.1788 2.65561C11.4199 2.90247 12.5599 3.51182 13.4546 4.40659C14.3494 5.30135 14.9588 6.44136 15.2056 7.68244C15.4525 8.92352 15.3258 10.2099 14.8415 11.379C14.3573 12.5481 13.5373 13.5473 12.4851 14.2503C11.433 14.9533 10.196 15.3286 8.93061 15.3286C7.23377 15.3286 5.60643 14.6545 4.40659 13.4546C3.20674 12.2548 2.53267 10.6275 2.53267 8.93061Z" fill="#20212E"/>
</svg>
