<svg width="32" height="33" viewBox="0 0 32 33" fill="none" xmlns="http://www.w3.org/2000/svg">
<path fill-rule="evenodd" clip-rule="evenodd" d="M31.75 21C31.75 20.1045 31.3945 19.2461 30.7611 18.6139C30.4479 18.3003 30.076 18.0515 29.6665 17.8818C29.2571 17.7121 28.8182 17.6248 28.375 17.625H20.5C19.6045 17.625 18.7461 17.9805 18.1139 18.6139C17.8003 18.9271 17.5515 19.299 17.3818 19.7085C17.2121 20.1179 17.1248 20.5568 17.125 21V28.875C17.125 29.7705 17.4805 30.6289 18.1139 31.2611C18.4271 31.5747 18.799 31.8235 19.2085 31.9932C19.6179 32.1629 20.0568 32.2502 20.5 32.25H28.375C29.2705 32.25 30.1289 31.8945 30.7611 31.2611C31.0747 30.9479 31.3235 30.576 31.4932 30.1665C31.6629 29.7571 31.7502 29.3182 31.75 28.875V21ZM14.875 21C14.875 20.1045 14.5195 19.2461 13.8861 18.6139C13.5729 18.3003 13.201 18.0515 12.7915 17.8818C12.3821 17.7121 11.9432 17.6248 11.5 17.625H3.625C2.7295 17.625 1.87113 17.9805 1.23888 18.6139C0.925256 18.9271 0.676484 19.299 0.506799 19.7085C0.337115 20.1179 0.24985 20.5568 0.25 21V28.875C0.25 29.7705 0.6055 30.6289 1.23888 31.2611C1.55205 31.5747 1.92401 31.8235 2.33345 31.9932C2.7429 32.1629 3.18179 32.2502 3.625 32.25H11.5C12.3955 32.25 13.2539 31.8945 13.8861 31.2611C14.1997 30.9479 14.4485 30.576 14.6182 30.1665C14.7879 29.7571 14.8752 29.3182 14.875 28.875V21ZM29.5 21V28.875C29.5004 29.0229 29.4717 29.1694 29.4153 29.306C29.3589 29.4427 29.276 29.5669 29.1715 29.6715C29.0669 29.776 28.9427 29.8589 28.806 29.9153C28.6694 29.9717 28.5229 30.0004 28.375 30H20.5C20.3521 30.0004 20.2056 29.9717 20.069 29.9153C19.9323 29.8589 19.8081 29.776 19.7035 29.6715C19.599 29.5669 19.5161 29.4427 19.4597 29.306C19.4033 29.1694 19.3746 29.0229 19.375 28.875V21C19.3746 20.8521 19.4033 20.7056 19.4597 20.569C19.5161 20.4323 19.599 20.3081 19.7035 20.2035C19.8081 20.099 19.9323 20.0161 20.069 19.9597C20.2056 19.9033 20.3521 19.8746 20.5 19.875H28.375C28.5229 19.8746 28.6694 19.9033 28.806 19.9597C28.9427 20.0161 29.0669 20.099 29.1715 20.2035C29.276 20.3081 29.3589 20.4323 29.4153 20.569C29.4717 20.7056 29.5004 20.8521 29.5 21ZM12.625 21V28.875C12.6254 29.0229 12.5967 29.1694 12.5403 29.306C12.4839 29.4427 12.401 29.5669 12.2965 29.6715C12.1919 29.776 12.0677 29.8589 11.931 29.9153C11.7944 29.9717 11.6479 30.0004 11.5 30H3.625C3.47714 30.0004 3.33065 29.9717 3.19395 29.9153C3.05726 29.8589 2.93307 29.776 2.82851 29.6715C2.72396 29.5669 2.64111 29.4427 2.58473 29.306C2.52835 29.1694 2.49955 29.0229 2.5 28.875V21C2.49955 20.8521 2.52835 20.7056 2.58473 20.569C2.64111 20.4323 2.72396 20.3081 2.82851 20.2035C2.93307 20.099 3.05726 20.0161 3.19395 19.9597C3.33065 19.9033 3.47714 19.8746 3.625 19.875H11.5C11.6479 19.8746 11.7944 19.9033 11.931 19.9597C12.0677 20.0161 12.1919 20.099 12.2965 20.2035C12.401 20.3081 12.4839 20.4323 12.5403 20.569C12.5967 20.7056 12.6254 20.8521 12.625 21ZM14.875 4.125C14.875 3.2295 14.5195 2.37113 13.8861 1.73888C13.5729 1.42526 13.201 1.17648 12.7915 1.0068C12.3821 0.837115 11.9432 0.74985 11.5 0.75H3.625C2.7295 0.75 1.87113 1.1055 1.23888 1.73888C0.925256 2.05205 0.676484 2.42401 0.506799 2.83345C0.337115 3.2429 0.24985 3.68179 0.25 4.125V12C0.25 12.8955 0.6055 13.7539 1.23888 14.3861C1.55205 14.6997 1.92401 14.9485 2.33345 15.1182C2.7429 15.2879 3.18179 15.3752 3.625 15.375H11.5C12.3955 15.375 13.2539 15.0195 13.8861 14.3861C14.1997 14.0729 14.4485 13.701 14.6182 13.2915C14.7879 12.8821 14.8752 12.4432 14.875 12V4.125ZM31.75 4.125C31.75 3.2295 31.3945 2.37113 30.7611 1.73888C30.4479 1.42526 30.076 1.17648 29.6665 1.0068C29.2571 0.837115 28.8182 0.74985 28.375 0.75H20.5C19.6045 0.75 18.7461 1.1055 18.1139 1.73888C17.8003 2.05205 17.5515 2.42401 17.3818 2.83345C17.2121 3.2429 17.1248 3.68179 17.125 4.125V12C17.125 12.8955 17.4805 13.7539 18.1139 14.3861C18.4271 14.6997 18.799 14.9485 19.2085 15.1182C19.6179 15.2879 20.0568 15.3752 20.5 15.375H28.375C29.2705 15.375 30.1289 15.0195 30.7611 14.3861C31.0747 14.0729 31.3235 13.701 31.4932 13.2915C31.6629 12.8821 31.7502 12.4432 31.75 12V4.125ZM12.625 4.125V12C12.6254 12.1479 12.5967 12.2944 12.5403 12.431C12.4839 12.5677 12.401 12.6919 12.2965 12.7965C12.1919 12.901 12.0677 12.9839 11.931 13.0403C11.7944 13.0967 11.6479 13.1254 11.5 13.125H3.625C3.47714 13.1254 3.33065 13.0967 3.19395 13.0403C3.05726 12.9839 2.93307 12.901 2.82851 12.7965C2.72396 12.6919 2.64111 12.5677 2.58473 12.431C2.52835 12.2944 2.49955 12.1479 2.5 12V4.125C2.49955 3.97714 2.52835 3.83065 2.58473 3.69395C2.64111 3.55726 2.72396 3.43307 2.82851 3.32851C2.93307 3.22396 3.05726 3.14111 3.19395 3.08473C3.33065 3.02835 3.47714 2.99955 3.625 3H11.5C11.6479 2.99955 11.7944 3.02835 11.931 3.08473C12.0677 3.14111 12.1919 3.22396 12.2965 3.32851C12.401 3.43307 12.4839 3.55726 12.5403 3.69395C12.5967 3.83065 12.6254 3.97714 12.625 4.125ZM29.5 4.125V12C29.5004 12.1479 29.4717 12.2944 29.4153 12.431C29.3589 12.5677 29.276 12.6919 29.1715 12.7965C29.0669 12.901 28.9427 12.9839 28.806 13.0403C28.6694 13.0967 28.5229 13.1254 28.375 13.125H20.5C20.3521 13.1254 20.2056 13.0967 20.069 13.0403C19.9323 12.9839 19.8081 12.901 19.7035 12.7965C19.599 12.6919 19.5161 12.5677 19.4597 12.431C19.4033 12.2944 19.3746 12.1479 19.375 12V4.125C19.3746 3.97714 19.4033 3.83065 19.4597 3.69395C19.5161 3.55726 19.599 3.43307 19.7035 3.32851C19.8081 3.22396 19.9323 3.14111 20.069 3.08473C20.2056 3.02835 20.3521 2.99955 20.5 3H28.375C28.5229 2.99955 28.6694 3.02835 28.806 3.08473C28.9427 3.14111 29.0669 3.22396 29.1715 3.32851C29.276 3.43307 29.3589 3.55726 29.4153 3.69395C29.4717 3.83065 29.5004 3.97714 29.5 4.125Z" fill="#20212E"/>
</svg>
