<svg width="18" height="29" viewBox="0 0 18 29" fill="none" xmlns="http://www.w3.org/2000/svg">
<path d="M6.44555 28.9H11.3746V25.2958C14.9788 24.4122 17.201 21.8772 17.201 18.511C17.201 15.0655 15.3943 12.9554 11.1595 11.4546C9.60503 10.8817 7.80758 10.1313 7.80758 9.45883C7.80758 8.57526 9.03287 8.43943 9.76167 8.43943C11.8923 8.43943 13.2557 9.10379 14.0721 9.50052L15.0093 9.95508L15.3067 8.95451L16.4749 4.5044L15.8257 4.19373C14.9615 3.78221 13.5796 3.26713 11.5392 3.09096V0.100006H6.61017V3.446C3.18784 4.34705 1.07843 6.8014 1.07843 10.0237C1.07843 14.1779 4.53925 15.8886 7.55535 16.9187C10.1174 17.7942 10.4719 18.4263 10.4719 18.9763C10.4719 19.794 9.30899 20.1598 8.15671 20.1598C5.91189 20.1598 4.04541 19.3126 3.13607 18.8069L2.16433 18.269L0.743896 23.8891V23.8904L1.32667 24.2159C2.64091 24.9529 4.57907 25.472 6.44555 25.6428V28.9Z" fill="#20212E"/>
</svg>
