<svg width="17" height="37" viewBox="0 0 17 37" fill="none" xmlns="http://www.w3.org/2000/svg">
<path d="M14.7656 13.4783V11.8906C14.7656 10.6289 13.9304 9.55857 12.7837 9.20342L10.506 1.2638C10.3762 0.811625 9.96265 0.5 9.49219 0.5H7.38281C6.91235 0.5 6.49877 0.811625 6.36905 1.2638L4.09127 9.20342C2.94462 9.55857 2.10938 10.6289 2.10938 11.8906V13.4783C0.881789 13.9137 0 15.086 0 16.4609V33.3359C0 35.0806 1.4194 36.5 3.16406 36.5H13.7109C15.4556 36.5 16.875 35.0806 16.875 33.3359V16.4609C16.875 15.086 15.9932 13.9137 14.7656 13.4783ZM4.21875 11.8906C4.21875 11.5029 4.53417 11.1875 4.92188 11.1875H11.9531C12.3408 11.1875 12.6562 11.5029 12.6562 11.8906V13.2969H4.21875V11.8906ZM8.17748 2.60938H8.69752L10.5533 9.07812H6.32166L8.17748 2.60938ZM3.16406 15.4062H13.7109C14.2925 15.4062 14.7656 15.8794 14.7656 16.4609V20.3281H2.10938V16.4609C2.10938 15.8794 2.58251 15.4062 3.16406 15.4062ZM14.7656 28.7656H2.10938V22.4375H14.7656V28.7656ZM13.7109 34.3906H3.16406C2.58251 34.3906 2.10938 33.9175 2.10938 33.3359V30.875H14.7656V33.3359C14.7656 33.9175 14.2925 34.3906 13.7109 34.3906Z" fill="#20212E"/>
</svg>
