<svg width="28" height="29" viewBox="0 0 28 29" fill="none" xmlns="http://www.w3.org/2000/svg">
<path d="M14 29C21.667 29 27.905 22.762 27.905 15.095C27.905 9.796 24.825 4.889 20.06 2.592C19.8822 2.50354 19.6887 2.45126 19.4905 2.43817C19.2924 2.42509 19.0937 2.45147 18.9058 2.51578C18.718 2.58009 18.5448 2.68105 18.3963 2.81282C18.2477 2.94458 18.1268 3.10452 18.0406 3.28336C17.9544 3.4622 17.9045 3.65639 17.8938 3.85465C17.8832 4.05292 17.9121 4.25132 17.9787 4.43835C18.0453 4.62538 18.1485 4.79733 18.282 4.94421C18.4156 5.09109 18.5771 5.20998 18.757 5.294C22.492 7.094 24.905 10.941 24.905 15.094C24.905 21.109 20.014 26 14 26C7.98697 26 3.09497 21.108 3.09497 15.095C3.09497 10.941 5.50797 7.095 9.24297 5.294C9.42287 5.20998 9.5843 5.09109 9.71789 4.94421C9.85149 4.79733 9.9546 4.62538 10.0212 4.43835C10.0879 4.25132 10.1167 4.05292 10.1061 3.85465C10.0955 3.65639 10.0456 3.4622 9.95935 3.28336C9.8731 3.10452 9.75221 2.94458 9.60369 2.81282C9.45516 2.68105 9.28195 2.58009 9.0941 2.51578C8.90626 2.45147 8.70751 2.42509 8.50939 2.43817C8.31128 2.45126 8.11773 2.50354 7.93997 2.592C3.17397 4.889 0.0949707 9.797 0.0949707 15.095C0.0949707 22.762 6.33297 29 14 29Z" fill="#20212E"/>
<path d="M14 10.62C14.3978 10.62 14.7793 10.462 15.0606 10.1807C15.3419 9.89935 15.5 9.51782 15.5 9.12V1.5C15.5 1.10218 15.3419 0.720644 15.0606 0.43934C14.7793 0.158035 14.3978 0 14 0C13.6021 0 13.2206 0.158035 12.9393 0.43934C12.658 0.720644 12.5 1.10218 12.5 1.5V9.12C12.5 9.51782 12.658 9.89935 12.9393 10.1807C13.2206 10.462 13.6021 10.62 14 10.62Z" fill="#20212E"/>
</svg>
