<svg width="34" height="21" viewBox="0 0 34 21" fill="none" xmlns="http://www.w3.org/2000/svg">
<path d="M31.6398 16.4249H31.3215C30.977 9.49201 25.685 3.84361 18.9127 2.93641C19.0064 2.69875 19.0546 2.4456 19.0549 2.19013C19.0549 1.05721 18.1329 0.135254 17 0.135254C15.8671 0.135254 14.9451 1.05721 14.9451 2.19013C14.9451 2.45365 14.9966 2.70457 15.0873 2.93641C8.31501 3.84361 3.02301 9.49201 2.67849 16.4249H2.35989C1.13589 16.4249 0.139771 17.421 0.139771 18.645C0.139771 19.869 1.13589 20.8651 2.35989 20.8651H31.6398C32.8638 20.8651 33.8599 19.869 33.8599 18.645C33.8599 17.421 32.8638 16.4249 31.6398 16.4249ZM17 1.57525C17.3388 1.57525 17.6149 1.85101 17.6149 2.19013C17.6149 2.52925 17.3388 2.80501 17 2.80501C16.6609 2.80501 16.3851 2.52925 16.3851 2.19013C16.3851 1.85101 16.6609 1.57525 17 1.57525ZM17 4.24501C23.8713 4.24501 29.5039 9.64574 29.8787 16.4249H4.12137C4.49613 9.64574 10.1287 4.24501 17 4.24501ZM31.6398 19.4251H2.35989C1.92969 19.4251 1.57977 19.0752 1.57977 18.645C1.57977 18.2148 1.92969 17.8649 2.35989 17.8649H31.6398C32.07 17.8649 32.4199 18.2148 32.4199 18.645C32.4199 19.0752 32.07 19.4251 31.6398 19.4251Z" fill="#FC953F"/>
<path d="M26.8849 13.0157C25.7912 10.4007 23.6582 8.28853 21.0335 7.22041C20.8571 7.15091 20.6604 7.15379 20.4861 7.22842C20.3118 7.30304 20.174 7.4434 20.1026 7.61901C20.0311 7.79463 20.0319 7.99133 20.1046 8.16642C20.1773 8.34151 20.3161 8.48086 20.4909 8.55422C22.7636 9.4787 24.6097 11.3071 25.5569 13.5712C25.5933 13.6585 25.6465 13.7377 25.7136 13.8044C25.7807 13.871 25.8603 13.9238 25.9478 13.9597C26.0353 13.9956 26.129 14.0139 26.2236 14.0135C26.3182 14.0131 26.4118 13.9941 26.499 13.9575C26.5862 13.921 26.6654 13.8677 26.732 13.8006C26.7986 13.7336 26.8513 13.654 26.8871 13.5666C26.923 13.4791 26.9412 13.3854 26.9408 13.2909C26.9405 13.1964 26.9214 13.1029 26.8849 13.0157Z" fill="#FC953F"/>
</svg>
