<svg width="24" height="27" viewBox="0 0 24 27" fill="none" xmlns="http://www.w3.org/2000/svg">
<path d="M2.50681 0.700012H6.6496C7.59091 0.700012 8.35636 1.44001 8.35636 2.35001V24.65C8.35636 25.56 7.59091 26.3 6.6496 26.3H2.50681C1.56551 26.3 0.800049 25.56 0.800049 24.65V2.35001C0.800049 1.44001 1.56551 0.700012 2.50681 0.700012Z" fill="#20212E"/>
<path d="M17.3505 0.700012H21.4933C22.4346 0.700012 23.2001 1.44001 23.2001 2.35001V24.65C23.2001 25.56 22.4346 26.3 21.4933 26.3H17.3505C16.4092 26.3 15.6437 25.56 15.6437 24.65V2.35001C15.6437 1.44001 16.4092 0.700012 17.3505 0.700012Z" fill="#20212E"/>
</svg>
