<svg width="36" height="37" viewBox="0 0 36 37" fill="none" xmlns="http://www.w3.org/2000/svg">
<path d="M33.7212 13.2196C32.7117 12.302 32.1328 10.9932 32.1328 9.62902V1.55469C32.1328 0.972219 31.6606 0.5 31.0781 0.5H24.0469C23.4644 0.5 22.9922 0.972219 22.9922 1.55469V9.62902C22.9922 10.9932 22.4133 12.302 21.4038 13.2196C19.9555 14.5362 19.125 16.4138 19.125 18.371V32.6328C19.125 34.7652 20.8598 36.5 22.9922 36.5H32.1328C34.2652 36.5 36 34.7652 36 32.6328V18.371C36 16.4138 35.1695 14.5362 33.7212 13.2196ZM25.1016 2.60938H30.0234V4.71875H25.1016V2.60938ZM22.8227 14.7804C24.271 13.4638 25.1016 11.5862 25.1016 9.62902V6.82812H30.0234V9.62902C30.0234 11.5862 30.854 13.4638 32.3023 14.7804C33.3117 15.698 33.8906 17.0068 33.8906 18.371V20.3281H21.2344V18.371C21.2344 17.0068 21.8133 15.698 22.8227 14.7804ZM33.8906 28.7656H21.2344V22.4375H33.8906V28.7656ZM32.1328 34.3906H22.9922C22.0229 34.3906 21.2344 33.6021 21.2344 32.6328V30.875H33.8906V32.6328C33.8906 33.6021 33.1021 34.3906 32.1328 34.3906Z" fill="#20212E"/>
<path d="M24.3984 26.6562H30.7266C31.309 26.6562 31.7812 26.184 31.7812 25.6016C31.7812 25.0191 31.309 24.5469 30.7266 24.5469H24.3984C23.816 24.5469 23.3438 25.0191 23.3438 25.6016C23.3438 26.184 23.816 26.6562 24.3984 26.6562Z" fill="#20212E"/>
<path d="M14.7656 13.4783V11.8906C14.7656 10.6289 13.9304 9.55857 12.7837 9.20342L10.506 1.2638C10.3762 0.811625 9.96265 0.5 9.49219 0.5H7.38281C6.91235 0.5 6.49877 0.811625 6.36905 1.2638L4.09127 9.20342C2.94462 9.55857 2.10938 10.6289 2.10938 11.8906V13.4783C0.881789 13.9137 0 15.086 0 16.4609V33.3359C0 35.0806 1.4194 36.5 3.16406 36.5H13.7109C15.4556 36.5 16.875 35.0806 16.875 33.3359V16.4609C16.875 15.086 15.9932 13.9137 14.7656 13.4783ZM4.21875 11.8906C4.21875 11.5029 4.53417 11.1875 4.92188 11.1875H11.9531C12.3408 11.1875 12.6562 11.5029 12.6562 11.8906V13.2969H4.21875V11.8906ZM8.17748 2.60938H8.69752L10.5533 9.07812H6.32166L8.17748 2.60938ZM3.16406 15.4062H13.7109C14.2925 15.4062 14.7656 15.8794 14.7656 16.4609V20.3281H2.10938V16.4609C2.10938 15.8794 2.58251 15.4062 3.16406 15.4062ZM14.7656 28.7656H2.10938V22.4375H14.7656V28.7656ZM13.7109 34.3906H3.16406C2.58251 34.3906 2.10938 33.9175 2.10938 33.3359V30.875H14.7656V33.3359C14.7656 33.9175 14.2925 34.3906 13.7109 34.3906Z" fill="#20212E"/>
<path d="M5.27344 26.6562H11.6016C12.184 26.6562 12.6562 26.184 12.6562 25.6016C12.6562 25.0191 12.184 24.5469 11.6016 24.5469H5.27344C4.69097 24.5469 4.21875 25.0191 4.21875 25.6016C4.21875 26.184 4.69097 26.6562 5.27344 26.6562Z" fill="#20212E"/>
</svg>
