<svg width="27" height="27" viewBox="0 0 27 27" fill="none" xmlns="http://www.w3.org/2000/svg">
<path d="M24.5333 14.38C24.3195 14.1367 24.2016 13.8239 24.2016 13.5C24.2016 13.1761 24.3195 12.8633 24.5333 12.62L26.2399 10.7C26.428 10.4902 26.5448 10.2263 26.5735 9.94601C26.6023 9.66575 26.5415 9.38358 26.3999 9.14L23.7333 4.52667C23.5931 4.28336 23.3798 4.0905 23.1236 3.97558C22.8674 3.86066 22.5815 3.82955 22.3066 3.88667L19.7999 4.39334C19.481 4.45924 19.1489 4.40612 18.8665 4.244C18.584 4.08188 18.3706 3.82198 18.2666 3.51334L17.4533 1.07334C17.3638 0.808508 17.1934 0.578489 16.9661 0.415792C16.7388 0.253094 16.4661 0.165948 16.1866 0.166669H10.8533C10.5625 0.151493 10.2748 0.231904 10.034 0.395621C9.79327 0.559338 9.61272 0.797361 9.51994 1.07334L8.77328 3.51334C8.66928 3.82198 8.45591 4.08188 8.17343 4.244C7.89095 4.40612 7.5589 4.45924 7.23994 4.39334L4.66661 3.88667C4.40601 3.84984 4.14034 3.89097 3.90307 4.00486C3.6658 4.11875 3.46755 4.30031 3.33328 4.52667L0.66661 9.14C0.52149 9.38087 0.456239 9.66145 0.480187 9.94163C0.504134 10.2218 0.616053 10.4873 0.799943 10.7L2.49328 12.62C2.70704 12.8633 2.82492 13.1761 2.82492 13.5C2.82492 13.8239 2.70704 14.1367 2.49328 14.38L0.799943 16.3C0.616053 16.5127 0.504134 16.7782 0.480187 17.0584C0.456239 17.3386 0.52149 17.6191 0.66661 17.86L3.33328 22.4733C3.47341 22.7166 3.68677 22.9095 3.94295 23.0244C4.19912 23.1393 4.48504 23.1705 4.75994 23.1133L7.26661 22.6067C7.58557 22.5408 7.91761 22.5939 8.20009 22.756C8.48257 22.9181 8.69594 23.178 8.79994 23.4867L9.61328 25.9267C9.70605 26.2026 9.8866 26.4407 10.1274 26.6044C10.3681 26.7681 10.6559 26.8485 10.9466 26.8333H16.2799C16.5595 26.8341 16.8322 26.7469 17.0594 26.5842C17.2867 26.4215 17.4572 26.1915 17.5466 25.9267L18.3599 23.4867C18.4639 23.178 18.6773 22.9181 18.9598 22.756C19.2423 22.5939 19.5743 22.5408 19.8933 22.6067L22.3999 23.1133C22.6748 23.1705 22.9608 23.1393 23.2169 23.0244C23.4731 22.9095 23.6865 22.7166 23.8266 22.4733L26.4933 17.86C26.6348 17.6164 26.6956 17.3343 26.6669 17.054C26.6381 16.7737 26.5213 16.5098 26.3333 16.3L24.5333 14.38ZM22.5466 16.1667L23.6133 17.3667L21.9066 20.3267L20.3333 20.0067C19.373 19.8104 18.374 19.9735 17.5261 20.4651C16.6781 20.9566 16.0401 21.7425 15.7333 22.6733L15.2266 24.1667H11.8133L11.3333 22.6467C11.0264 21.7158 10.3885 20.93 9.54048 20.4384C8.69251 19.9468 7.69357 19.7837 6.73328 19.98L5.15994 20.3L3.42661 17.3533L4.49328 16.1533C5.14922 15.42 5.51185 14.4706 5.51185 13.4867C5.51185 12.5028 5.14922 11.5534 4.49328 10.82L3.42661 9.62L5.13328 6.68667L6.70661 7.00667C7.6669 7.20297 8.66585 7.03984 9.51382 6.54827C10.3618 6.05669 10.9997 5.27088 11.3066 4.34L11.8133 2.83334H15.2266L15.7333 4.35334C16.0401 5.28421 16.6781 6.07002 17.5261 6.5616C18.374 7.05318 19.373 7.2163 20.3333 7.02L21.9066 6.7L23.6133 9.66L22.5466 10.86C21.898 11.5917 21.5399 12.5356 21.5399 13.5133C21.5399 14.4911 21.898 15.435 22.5466 16.1667ZM13.5199 8.16667C12.4651 8.16667 11.434 8.47946 10.5569 9.0655C9.67984 9.65153 8.99625 10.4845 8.59259 11.459C8.18892 12.4336 8.0833 13.5059 8.28909 14.5405C8.49488 15.5751 9.00283 16.5254 9.74871 17.2712C10.4946 18.0171 11.4449 18.5251 12.4795 18.7309C13.514 18.9366 14.5864 18.831 15.5609 18.4274C16.5355 18.0237 17.3684 17.3401 17.9544 16.463C18.5405 15.586 18.8533 14.5548 18.8533 13.5C18.8533 12.0855 18.2914 10.729 17.2912 9.72877C16.291 8.72857 14.9344 8.16667 13.5199 8.16667ZM13.5199 16.1667C12.9925 16.1667 12.477 16.0103 12.0384 15.7173C11.5999 15.4242 11.2581 15.0078 11.0563 14.5205C10.8544 14.0332 10.8016 13.497 10.9045 12.9798C11.0074 12.4625 11.2614 11.9873 11.6343 11.6144C12.0073 11.2414 12.4824 10.9875 12.9997 10.8846C13.517 10.7817 14.0532 10.8345 14.5404 11.0363C15.0277 11.2382 15.4442 11.58 15.7372 12.0185C16.0302 12.457 16.1866 12.9726 16.1866 13.5C16.1866 14.2072 15.9057 14.8855 15.4056 15.3856C14.9055 15.8857 14.2272 16.1667 13.5199 16.1667Z" fill="#20212E"/>
</svg>
