<svg width="32" height="27" viewBox="0 0 32 27" fill="none" xmlns="http://www.w3.org/2000/svg">
<path d="M23.6893 11.9H8.35076L7.91023 15.1H24.0898L23.6893 11.9ZM3.18452 26.3L5.14689 11.9H1.58259C1.04861 11.9 0.627838 11.6867 0.320266 11.26C0.0137628 10.8333 -0.0727415 10.3667 0.060753 9.86001L2.34351 1.86001C2.4503 1.51335 2.6372 1.23335 2.90419 1.02001C3.17118 0.806679 3.49156 0.700012 3.86535 0.700012H28.1347C28.5084 0.700012 28.8288 0.806679 29.0958 1.02001C29.3628 1.23335 29.5497 1.51335 29.6565 1.86001L31.9392 9.86001C32.0727 10.3667 31.9862 10.8333 31.6797 11.26C31.3722 11.6867 30.9514 11.9 30.4174 11.9H26.8931L28.8155 26.3H25.6116L24.5303 18.3H7.4697L6.38839 26.3H3.18452Z" fill="#20212E"/>
</svg>
