<svg width="32" height="33" viewBox="0 0 32 33" fill="none" xmlns="http://www.w3.org/2000/svg">
<path d="M21.3362 0.5C21.7404 0.5 22.1281 0.660553 22.4139 0.94634C22.6997 1.23213 22.8603 1.61974 22.8603 2.0239V3.5478H30.4804V12.6912H27.4034L31.5883 24.1875C31.8881 24.9612 32.0267 25.788 31.9957 26.6172C31.9648 27.4464 31.7648 28.2605 31.4081 29.0097C31.0514 29.7589 30.5455 30.4274 29.9214 30.9742C29.2973 31.521 28.5681 31.9347 27.7785 32.1898C26.9889 32.445 26.1555 32.5363 25.3293 32.4581C24.5032 32.3798 23.7017 32.1338 22.9741 31.735C22.2464 31.3362 21.6078 30.7931 21.0974 30.1388C20.587 29.4846 20.2155 28.733 20.0058 27.9302H13.5241C13.1778 29.2677 12.3875 30.4479 11.2827 31.2776C10.178 32.1074 8.82423 32.5375 7.44313 32.4974C6.06203 32.4574 4.73544 31.9497 3.68059 31.0574C2.62574 30.1651 1.90514 28.9411 1.6368 27.5858C1.14291 27.3279 0.729189 26.9394 0.440612 26.4628C0.152035 25.9862 -0.000356886 25.4396 6.276e-07 24.8824V9.64341C6.276e-07 9.23924 0.160566 8.85163 0.446375 8.56585C0.732184 8.28006 1.11982 8.11951 1.52402 8.11951H12.1921C12.5963 8.11951 12.984 8.28006 13.2698 8.56585C13.5556 8.85163 13.7162 9.23924 13.7162 9.64341V17.2629C13.7162 17.6671 13.8767 18.0547 14.1625 18.3405C14.4483 18.6263 14.836 18.7868 15.2402 18.7868H18.2882C18.6924 18.7868 19.08 18.6263 19.3659 18.3405C19.6517 18.0547 19.8122 17.6671 19.8122 17.2629V3.5478H15.2402V0.5H21.3362ZM7.62009 23.3585C6.8117 23.3585 6.03642 23.6796 5.4648 24.2512C4.89318 24.8228 4.57205 25.598 4.57205 26.4063C4.57205 27.2146 4.89318 27.9899 5.4648 28.5614C6.03642 29.133 6.8117 29.4541 7.62009 29.4541C8.42848 29.4541 9.20376 29.133 9.77537 28.5614C10.347 27.9899 10.6681 27.2146 10.6681 26.4063C10.6681 25.598 10.347 24.8228 9.77537 24.2512C9.20376 23.6796 8.42848 23.3585 7.62009 23.3585ZM25.9083 23.357C25.2601 23.3572 24.6289 23.564 24.1062 23.9474C23.5836 24.3308 23.1968 24.8708 23.0021 25.4889C22.8073 26.1071 22.8147 26.7713 23.0231 27.385C23.2316 27.9987 23.6303 28.53 24.1613 28.9017C24.6923 29.2733 25.328 29.4661 25.976 29.4519C26.624 29.4377 27.2507 29.2173 27.7649 28.8227C28.2791 28.4281 28.6541 27.8799 28.8355 27.2576C29.0169 26.6354 28.9951 25.9715 28.7735 25.3624L28.7491 25.2954C28.5255 24.7242 28.1347 24.2338 27.6279 23.8882C27.121 23.5426 26.5217 23.358 25.9083 23.3585V23.357ZM24.1603 12.6912H22.8603V17.2629C22.8603 18.4754 22.3786 19.6382 21.5211 20.4956C20.6637 21.353 19.5008 21.8346 18.2882 21.8346H15.2402C14.0276 21.8346 12.8647 21.353 12.0072 20.4956C11.1498 19.6382 10.6681 18.4754 10.6681 17.2629H3.04804V22.3741C3.78085 21.5443 4.7257 20.9297 5.78128 20.596C6.83686 20.2623 7.96336 20.2222 9.04 20.48C10.1166 20.7378 11.1028 21.2837 11.8928 22.0593C12.6827 22.8348 13.2467 23.8108 13.5241 24.8824H20.0043C20.3882 23.3969 21.3181 22.1107 22.6084 21.2803C23.8988 20.4499 25.4547 20.1363 26.966 20.4021L24.1603 12.6912ZM10.6681 11.1673H3.04804V14.2151H10.6681V11.1673ZM27.4323 6.5956H22.8603V9.64341H27.4323V6.5956Z" fill="#20212E"/>
</svg>
