<svg width="17" height="37" viewBox="0 0 17 37" fill="none" xmlns="http://www.w3.org/2000/svg">
<path d="M14.7212 13.2196C13.7117 12.302 13.1328 10.9932 13.1328 9.62902V1.55469C13.1328 0.972219 12.6606 0.5 12.0781 0.5H5.04688C4.46441 0.5 3.99219 0.972219 3.99219 1.55469V9.62902C3.99219 10.9932 3.41331 12.302 2.40383 13.2196C0.955532 14.5362 0.125 16.4138 0.125 18.371V32.6328C0.125 34.7652 1.85982 36.5 3.99219 36.5H13.1328C15.2652 36.5 17 34.7652 17 32.6328V18.371C17 16.4138 16.1695 14.5362 14.7212 13.2196ZM6.10156 2.60938H11.0234V4.71875H6.10156V2.60938ZM3.82273 14.7804C5.27103 13.4638 6.10156 11.5862 6.10156 9.62902V6.82812H11.0234V9.62902C11.0234 11.5862 11.854 13.4638 13.3023 14.7804C14.3117 15.698 14.8906 17.0068 14.8906 18.371V20.3281H2.23438V18.371C2.23438 17.0068 2.81326 15.698 3.82273 14.7804ZM14.8906 28.7656H2.23438V22.4375H14.8906V28.7656ZM13.1328 34.3906H3.99219C3.02293 34.3906 2.23438 33.6021 2.23438 32.6328V30.875H14.8906V32.6328C14.8906 33.6021 14.1021 34.3906 13.1328 34.3906Z" fill="#20212E"/>
</svg>
