<svg width="34" height="31" viewBox="0 0 34 31" fill="none" xmlns="http://www.w3.org/2000/svg">
<path fill-rule="evenodd" clip-rule="evenodd" d="M16.9996 7.84042L18.7139 5.45131C20.0343 3.61111 22.1752 2.41925 24.5961 2.41925C28.5932 2.41925 31.8344 5.66019 31.8344 9.65851C31.8344 10.2102 31.7645 10.7559 31.6368 11.2975L31.6193 11.3716L31.6072 11.4469C31.0521 14.9006 28.788 18.6735 25.7285 21.943C22.932 24.9315 19.69 27.265 17 28.4221C14.3097 27.265 11.068 24.9315 8.2714 21.943C5.21197 18.6735 2.9473 14.9004 2.39093 11.4461L2.37932 11.374L2.36274 11.3029C2.23571 10.7577 2.16577 10.2103 2.16577 9.65851C2.16577 5.66033 5.40685 2.41925 9.40503 2.41925C11.8251 2.41925 13.9667 3.61127 15.2859 5.45086L16.9996 7.84042ZM17.0001 30.691C23.4261 28.3548 32.3939 19.8456 33.6899 11.7816C33.8509 11.0985 33.9438 10.3899 33.9438 9.65851C33.9438 4.49535 29.7583 0.309879 24.5961 0.309879C22.2366 0.309879 20.086 1.18684 18.4431 2.62943C17.9039 3.10288 17.4193 3.63726 17.0001 4.22156C16.581 3.6372 16.0965 3.10277 15.5573 2.62927C13.9146 1.18678 11.7637 0.309879 9.40503 0.309879C4.24187 0.309879 0.0563965 4.49535 0.0563965 9.65851C0.0563965 10.3899 0.149239 11.0985 0.308396 11.7816C1.60724 19.8456 10.5731 28.3548 17.0001 30.691Z" fill="#20212E"/>
</svg>
