<svg width="32" height="33" viewBox="0 0 32 33" fill="none" xmlns="http://www.w3.org/2000/svg">
<path d="M26.85 0.550018C27.7126 0.550087 28.5462 0.859254 29.1976 1.42069C29.849 1.98213 30.2744 2.75812 30.3956 3.60602L30.4261 3.88335L31.9929 28.7722C32.0521 29.7061 31.7381 30.6255 31.1189 31.3311C30.4998 32.0366 29.6254 32.4714 28.6855 32.5411L28.4169 32.55H3.58143C2.63898 32.5501 1.73448 32.1813 1.06405 31.5238C0.393625 30.8662 0.0113095 29.9727 0 29.0371L0.00537219 28.7722L1.57225 3.88335C1.62614 3.02836 1.98914 2.22144 2.59451 1.61097C3.19988 1.0005 4.0069 0.627546 4.86717 0.560685L5.14652 0.550018H26.85ZM26.85 4.10557H5.14652L3.57964 28.9945H28.4169L26.8518 4.10557H26.85ZM21.3704 7.66113C21.8453 7.66113 22.3008 7.84843 22.6366 8.18183C22.9725 8.51523 23.1611 8.96741 23.1611 9.43891C23.1611 11.3249 22.4065 13.1336 21.0632 14.4672C19.7199 15.8008 17.898 16.55 15.9983 16.55C14.0985 16.55 12.2766 15.8008 10.9333 14.4672C9.59005 13.1336 8.83539 11.3249 8.83539 9.43891C8.83539 8.96741 9.02406 8.51523 9.35988 8.18183C9.69571 7.84843 10.1512 7.66113 10.6261 7.66113C11.101 7.66113 11.5565 7.84843 11.8923 8.18183C12.2282 8.51523 12.4168 8.96741 12.4168 9.43891C12.4127 10.3615 12.7699 11.2497 13.4131 11.9156C14.0564 12.5816 14.9351 12.9733 15.8638 13.0079C16.7925 13.0425 17.6984 12.7174 18.3901 12.1011C19.0819 11.4849 19.5052 10.6259 19.5707 9.70557L19.5797 9.43891C19.5797 8.96741 19.7684 8.51523 20.1042 8.18183C20.44 7.84843 20.8955 7.66113 21.3704 7.66113Z" fill="#20212E"/>
</svg>
