<svg width="26" height="27" viewBox="0 0 26 27" fill="none" xmlns="http://www.w3.org/2000/svg">
<path d="M19.748 16.6822C17.9858 16.5219 17.0245 18.9256 15.7429 19.5665C13.6602 20.6882 9.81525 16.6822 9.81525 16.6822C9.81525 16.6822 5.81011 12.8363 6.77134 10.7532C7.57237 9.47124 9.97546 8.50978 9.81525 6.74711C9.65505 5.14468 6.13052 -0.624054 4.36826 0.978373C0.523317 4.50371 0.202906 5.9459 0.202906 8.83027C0.0426999 13.7978 6.45093 20.0473 6.45093 20.0473C7.09176 20.6882 12.699 26.457 17.6653 26.2967C20.549 26.2967 21.9909 25.9762 25.5154 22.1304C27.1175 20.3677 21.5103 16.8424 19.748 16.6822Z" fill="#20212E"/>
</svg>
