<svg width="20" height="24" viewBox="0 0 20 24" fill="none" xmlns="http://www.w3.org/2000/svg">
<path d="M18.4 2.4H16V1.2C16 0.48 15.4 0 14.8 0C14.2 0 13.6 0.6 13.6 1.2V2.4H11.2V1.2C11.2 0.48 10.6 0 9.99999 0C9.39999 0 8.79999 0.6 8.79999 1.2V2.4H6.39999V1.2C6.39999 0.48 5.79999 0 5.19999 0C4.59999 0 3.99999 0.6 3.99999 1.2V2.4H1.59999C0.999994 2.4 0.399994 3 0.399994 3.6V22.8C0.399994 23.52 0.999994 24 1.59999 24H13.6L19.6 19.2V3.6C19.6 3 19.12 2.4 18.4 2.4ZM11.2 16.8H3.99999C3.27999 16.8 2.79999 16.32 2.79999 15.6C2.79999 14.88 3.27999 14.4 3.99999 14.4H11.2C11.92 14.4 12.4 14.88 12.4 15.6C12.4 16.32 11.92 16.8 11.2 16.8ZM14.8 12H3.99999C3.27999 12 2.79999 11.52 2.79999 10.8C2.79999 10.08 3.27999 9.6 3.99999 9.6H14.8C15.52 9.6 16 10.08 16 10.8C16 11.52 15.52 12 14.8 12ZM14.8 7.2H3.99999C3.39999 7.2 2.79999 6.72 2.79999 6C2.79999 5.28 3.27999 4.8 3.99999 4.8H14.8C15.52 4.8 16 5.28 16 6C16 6.72 15.52 7.2 14.8 7.2Z" fill="white"/>
</svg>
