<svg width="22" height="24" viewBox="0 0 22 24" fill="none" xmlns="http://www.w3.org/2000/svg">
<path d="M12.0274 7.5441V5.46442C12.8059 5.33567 13.553 5.06054 14.2291 4.65366L15.1105 4.12267L14.048 2.3594L13.1666 2.89039C12.8123 3.10342 12.4284 3.26281 12.0274 3.36337V0.777641H9.96894V3.36337C9.56796 3.26281 9.18405 3.10342 8.82976 2.89039L7.94836 2.3594L6.8859 4.12267L7.76731 4.65366C8.44338 5.06054 9.19042 5.33567 9.96894 5.46442V9.60258L12.0274 7.5441Z" fill="white"/>
<path d="M12.0274 9.58057L4.10084 17.5072C4.1657 17.8148 4.19561 18.1291 4.18976 18.4441L4.17058 19.4733L4.97082 19.4882L6.24721 18.2118C6.22944 17.5142 6.09494 16.8238 5.84871 16.1694L9.96894 13.7886V14.4901L17.9076 6.55146C17.836 6.22954 17.8028 5.89999 17.8089 5.56968L17.8281 4.54045L17.0815 4.52653L15.7529 5.8551C15.7756 6.53374 15.9087 7.20489 16.1477 7.84196L12.0274 10.2228V9.58057Z" fill="white"/>
<path d="M20.6993 5.79622L16.4487 10.0468L17.1769 9.62629C17.6776 10.2364 18.2894 10.746 18.9799 11.128L19.8805 11.6258L20.8761 9.82419L19.9755 9.32641C19.6139 9.12669 19.2839 8.87443 18.9963 8.57787L21.4777 7.14255L20.6993 5.79622Z" fill="white"/>
<path d="M13.9651 12.5304L12.458 14.0375L16.1477 16.1694C15.8699 16.9082 15.7344 17.6929 15.7486 18.482L15.7678 19.5112L17.8263 19.4728L17.8071 18.4436C17.7998 18.0294 17.8544 17.6165 17.9689 17.2183L20.4485 18.6513L21.4777 16.8712L18.9982 15.4354C19.2849 15.1384 19.6141 14.8855 19.975 14.685L20.8756 14.1872L19.8801 12.3856L18.9795 12.8834C18.2889 13.2654 17.6771 13.7751 17.1764 14.3851L13.9651 12.5304Z" fill="white"/>
<path d="M12.0274 14.4681L9.96894 16.5266V18.547C9.19042 18.6758 8.44338 18.9509 7.76731 19.3578L6.8859 19.8887L7.94836 21.652L8.82976 21.121C9.18405 20.908 9.56796 20.7486 9.96894 20.648V23.2338H12.0274V20.648C12.4284 20.7486 12.8123 20.908 13.1666 21.121L14.048 21.652L15.1105 19.8887L14.2291 19.3578C13.553 18.9509 12.8059 18.6758 12.0274 18.547V14.4681Z" fill="white"/>
<path d="M1.31726 18.2543L5.68793 13.8836L4.81947 14.3851C4.31879 13.7751 3.70696 13.2654 3.01642 12.8834L2.11631 12.3856L1.12075 14.1872L2.02134 14.685C2.38296 14.8847 2.71294 15.137 3.00052 15.4335L0.518646 16.8712L1.31726 18.2543Z" fill="white"/>
<path d="M8.06881 11.5027L9.57587 9.99565L5.84871 7.84196C6.12651 7.10325 6.2619 6.31855 6.24777 5.52945L6.22859 4.50021L4.17011 4.53858L4.18929 5.56781C4.19697 5.98129 4.14303 6.39359 4.02929 6.7912L1.54789 5.36243L0.518646 7.14489L3.00052 8.57834C2.71294 8.8749 2.38296 9.12716 2.02134 9.32688L1.12075 9.82419L2.11631 11.6258L3.01689 11.128C3.70742 10.746 4.31926 10.2364 4.81994 9.62629L8.06881 11.5027Z" fill="white"/>
<path d="M20.024 1.584L21.4495 3.00953L2.02281 22.4362L0.597285 21.0107L20.024 1.584Z" fill="white"/>
</svg>
