<svg width="14" height="22" viewBox="0 0 14 22" fill="none" xmlns="http://www.w3.org/2000/svg">
<path d="M5.08426 21.8H8.78104V19.0968C11.4842 18.4342 13.1509 16.5329 13.1509 14.0083C13.1509 11.4241 11.7958 9.84158 8.61975 8.71594C7.45386 8.28626 6.10577 7.72344 6.10577 7.21912C6.10577 6.55644 7.02474 6.45457 7.57135 6.45457C9.16934 6.45457 10.1919 6.95284 10.8042 7.25038L11.5071 7.5913L11.7301 6.84088L12.6063 3.50329L12.1194 3.2703C11.4712 2.96165 10.4348 2.57534 8.9045 2.44321V0.2H5.20771V2.70949C2.64097 3.38528 1.05891 5.22605 1.05891 7.64275C1.05891 10.7584 3.65453 12.0414 5.9166 12.814C7.83818 13.4707 8.10401 13.9447 8.10401 14.3573C8.10401 14.9705 7.23184 15.2449 6.36763 15.2449C4.68401 15.2449 3.28415 14.6094 2.60214 14.2302L1.87334 13.8267L0.808014 18.0418V18.0428L1.2451 18.2869C2.23077 18.8396 3.6844 19.229 5.08426 19.3571V21.8Z" fill="white"/>
</svg>
