<svg width="22" height="22" viewBox="0 0 22 22" fill="none" xmlns="http://www.w3.org/2000/svg">
<path fill-rule="evenodd" clip-rule="evenodd" d="M7.66668 0C7.11439 0 6.66668 0.44772 6.66668 1V3H1.95239C1.40011 3 0.952393 3.44772 0.952393 4C0.952393 4.55228 1.40011 5 1.95239 5H20.0476C20.5999 5 21.0476 4.55228 21.0476 4C21.0476 3.44772 20.5999 3 20.0476 3H15.4286V1C15.4286 0.44772 14.9809 0 14.4286 0H7.66668ZM8.66668 2.85714V2H13.4286V2.85714H8.66668Z" fill="white"/>
<path fill-rule="evenodd" clip-rule="evenodd" d="M18.9524 7H2.95239V18.1667C2.95239 20.3133 4.60232 22 6.75239 22H15.1524C17.3025 22 18.9524 20.3133 18.9524 18.1667V7ZM9.6191 10.5234C9.6191 9.9712 9.1713 9.5234 8.61906 9.5234C8.06677 9.5234 7.61906 9.9712 7.61906 10.5234V17.1901C7.61906 17.7424 8.06677 18.1901 8.61906 18.1901C9.1713 18.1901 9.6191 17.7424 9.6191 17.1901V10.5234ZM14.381 10.5234C14.381 9.9712 13.9333 9.5234 13.381 9.5234C12.8287 9.5234 12.381 9.9712 12.381 10.5234V17.1901C12.381 17.7424 12.8287 18.1901 13.381 18.1901C13.9333 18.1901 14.381 17.7424 14.381 17.1901V10.5234Z" fill="white"/>
</svg>
