<svg width="16" height="13" viewBox="0 0 16 13" fill="none" xmlns="http://www.w3.org/2000/svg">
<path d="M16 2.50001V10.5C16 11.8199 14.9199 12.9 13.6 12.9H2.4C1.08006 12.9 0 11.8199 0 10.5V2.50001C0 1.88397 0.232031 1.31604 0.624031 0.892194C0.664062 0.95585 0.703906 1.01994 0.759969 1.07579L6.28788 6.70001C6.74394 7.16407 7.35194 7.41994 8 7.41994C8.64806 7.41994 9.25606 7.16407 9.71212 6.70001L15.2401 1.07579C15.2961 1.01994 15.336 0.95585 15.376 0.892194C15.768 1.31604 16 1.88397 16 2.50001Z" fill="#9B51E0"/>
<path d="M13.9281 0.124225L12.384 1.70001L8.56797 5.58007C8.26406 5.88397 7.73594 5.88397 7.43203 5.58007L2.08006 0.124225C2.18397 0.107819 2.29609 0.100006 2.4 0.100006H13.6C13.7121 0.100006 13.824 0.107819 13.9281 0.124225Z" fill="#9B51E0"/>
</svg>
