<svg width="14" height="13" viewBox="0 0 14 13" fill="none" xmlns="http://www.w3.org/2000/svg">
<path d="M10.374 8.09109C9.49291 8.01096 9.01229 9.21279 8.37146 9.53327C7.33013 10.0941 5.40766 8.09109 5.40766 8.09109C5.40766 8.09109 3.40509 6.16817 3.8857 5.1266C4.28622 4.48563 5.48776 4.0049 5.40766 3.12356C5.32755 2.32235 3.56529 -0.562019 2.68416 0.239194C0.761689 2.00186 0.601483 2.72296 0.601483 4.16514C0.52138 6.6489 3.7255 9.77363 3.7255 9.77363C4.04591 10.0941 6.84951 12.9785 9.3327 12.8984C10.7746 12.8984 11.4955 12.7381 13.2577 10.8152C14.0588 9.93388 11.2552 8.17121 10.374 8.09109Z" fill="#9B51E0"/>
</svg>
