<svg width="29" height="28" viewBox="0 0 29 28" fill="none" xmlns="http://www.w3.org/2000/svg">
<path d="M28.75 16.693V18.4937C28.75 23.6451 24.5663 27.8359 19.4239 27.8359H4.04027C3.08152 27.8359 2.29708 27.0501 2.29708 26.0897C2.29708 25.1293 3.08152 24.3435 4.04027 24.3435H19.4239C22.6488 24.3435 25.2636 21.7133 25.2636 18.4937V16.693C25.2636 13.4625 22.6379 10.8432 19.4239 10.8432H6.69864L10.9041 15.0559C11.5796 15.7326 11.5796 16.8458 10.9041 17.5224C10.5663 17.8607 10.1196 18.0354 9.67296 18.0354C9.22626 18.0354 8.77957 17.8607 8.44183 17.5224L1.26206 10.3302C0.935214 10.0028 0.75 9.55537 0.75 9.09699C0.75 8.63861 0.935214 8.19114 1.26206 7.86373L8.44183 0.671553C9.11732 -0.00510104 10.2286 -0.00510104 10.9041 0.671553C11.5796 1.35912 11.5796 2.46141 10.9041 3.13807L6.69864 7.35078H19.413C24.5663 7.35078 28.75 11.5417 28.75 16.693Z" fill="#20212E"/>
</svg>
