<svg width="24" height="28" viewBox="0 0 24 28" fill="none" xmlns="http://www.w3.org/2000/svg">
<path d="M20.9125 10.5H20.125V8.72375C20.1207 4.41201 16.5723 0.872639 12.2762 0.875001C7.96031 0.877364 4.40676 4.4534 4.43625 8.785V10.5H3.5875C2.09125 10.5 0.875 11.7425 0.875 13.2825V24.3425C0.875 25.8825 2.09125 27.125 3.5875 27.125H20.9125C22.4088 27.125 23.625 25.8825 23.625 24.3425V13.2825C23.625 11.7425 22.4088 10.5 20.9125 10.5ZM13.125 19.0663V21C13.125 21.4813 12.7312 21.875 12.25 21.875C11.7688 21.875 11.375 21.4813 11.375 21V19.0663C10.605 18.725 10.0625 17.955 10.0625 17.0625C10.0625 15.855 11.0425 14.875 12.25 14.875C13.4575 14.875 14.4375 15.855 14.4375 17.0625C14.4375 17.955 13.895 18.725 13.125 19.0663ZM16.625 10.5H7.93625V8.75875C7.91796 6.35968 9.88514 4.37736 12.2762 4.375C14.6575 4.37264 16.624 6.33456 16.625 8.72375V10.5Z" fill="#20212E"/>
</svg>
