<svg width="12" height="15" viewBox="0 0 12 15" fill="none" xmlns="http://www.w3.org/2000/svg">
<path d="M5.99999 0.833344C4.58599 0.834932 3.23036 1.39734 2.23051 2.39719C1.23066 3.39704 0.668245 4.75268 0.666656 6.16668C0.666656 8.33668 2.24199 10.1387 3.91066 12.046C4.43866 12.65 4.98532 13.2747 5.47199 13.9067C5.53427 13.9875 5.61426 14.0529 5.70579 14.0979C5.79733 14.1429 5.89798 14.1663 5.99999 14.1663C6.102 14.1663 6.20265 14.1429 6.29419 14.0979C6.38572 14.0529 6.46571 13.9875 6.52799 13.9067C7.01466 13.2747 7.56132 12.65 8.08932 12.046C9.75799 10.1387 11.3333 8.33668 11.3333 6.16668C11.3317 4.75268 10.7693 3.39704 9.76947 2.39719C8.76962 1.39734 7.41399 0.834932 5.99999 0.833344ZM5.99999 8.16668C5.60443 8.16668 5.21775 8.04938 4.88885 7.82962C4.55995 7.60985 4.30361 7.2975 4.15223 6.93204C4.00086 6.56659 3.96125 6.16446 4.03842 5.7765C4.11559 5.38853 4.30607 5.03217 4.58578 4.75246C4.86548 4.47276 5.22185 4.28228 5.60981 4.20511C5.99777 4.12794 6.3999 4.16754 6.76536 4.31892C7.13081 4.47029 7.44317 4.72664 7.66293 5.05554C7.88269 5.38443 7.99999 5.77111 7.99999 6.16668C7.99999 6.69711 7.78928 7.20582 7.4142 7.58089C7.03913 7.95596 6.53042 8.16668 5.99999 8.16668Z" fill="#9B51E0"/>
</svg>
