<svg width="15" height="26" viewBox="0 0 15 26" fill="none" xmlns="http://www.w3.org/2000/svg">
<path d="M5.01495 25.6H9.32786V22.4463C12.4815 21.6732 14.426 19.455 14.426 16.5096C14.426 13.4948 12.8451 11.6485 9.13969 10.3353C7.77949 9.83396 6.20672 9.17734 6.20672 8.58896C6.20672 7.81584 7.27885 7.69699 7.91656 7.69699C9.78088 7.69699 10.9738 8.2783 11.6882 8.62544L12.5082 9.02318L12.7684 8.14769L13.7906 4.25383L13.2226 3.98201C12.4664 3.62192 11.2572 3.17123 9.4719 3.01708V0.399994H5.15899V3.32774C2.16445 4.11616 0.318717 6.26372 0.318717 9.0832C0.318717 12.7182 3.34693 14.215 5.98602 15.1164C8.22786 15.8824 8.538 16.4355 8.538 16.9168C8.538 17.6323 7.52046 17.9523 6.51222 17.9523C4.548 17.9523 2.91483 17.211 2.11915 16.7685L1.26888 16.2978L0.026001 21.2154V21.2166L0.535931 21.5014C1.68589 22.1462 3.38178 22.6005 5.01495 22.7499V25.6Z" fill="#20212E"/>
</svg>
