<svg width="29" height="22" viewBox="0 0 29 22" fill="none" xmlns="http://www.w3.org/2000/svg">
<path d="M26.3642 8.65306H3.13583C2.60082 8.6579 2.08289 8.842 1.66485 9.17592C1.24681 9.50984 0.952807 9.97429 0.829852 10.495C0.706897 11.0157 0.762091 11.5626 0.98661 12.0483C1.21113 12.5339 1.592 12.9302 2.06833 13.1739L4.25 14.2647V16.2364C4.25 17.6288 4.80312 18.9641 5.78769 19.9487C6.77225 20.9333 8.10761 21.4864 9.5 21.4864H20C21.3924 21.4864 22.7277 20.9333 23.7123 19.9487C24.6969 18.9641 25.25 17.6288 25.25 16.2364V14.2647L27.4317 13.1739C27.908 12.9302 28.2889 12.5339 28.5134 12.0483C28.7379 11.5626 28.7931 11.0157 28.6701 10.495C28.5472 9.97429 28.2532 9.50984 27.8351 9.17592C27.4171 8.842 26.8992 8.6579 26.3642 8.65306ZM2.59333 12.1531C2.33365 12.0383 2.12214 11.8366 1.9953 11.5826C1.86845 11.3286 1.83422 11.0383 1.89852 10.7618C1.96281 10.4853 2.12159 10.2398 2.34747 10.0679C2.57335 9.89588 2.85217 9.80812 3.13583 9.81972H4.25V12.9581L2.59333 12.1531ZM26.9067 12.1531L25.25 12.9581V9.81972H26.3642C26.6478 9.80812 26.9266 9.89588 27.1525 10.0679C27.3784 10.2398 27.5372 10.4853 27.6015 10.7618C27.6658 11.0383 27.6315 11.3286 27.5047 11.5826C27.3779 11.8366 27.1664 12.0383 26.9067 12.1531ZM14.3767 5.47972C13.1808 6.47722 13.5075 7.48639 14.1667 7.48639C14.3214 7.48639 14.4697 7.42493 14.5791 7.31553C14.6885 7.20614 14.75 7.05777 14.75 6.90306C14.75 6.36639 15.9167 6.19722 15.9167 4.96056C15.9167 3.40306 13.945 3.46722 15.1233 2.48722C16.3017 1.50722 15.9983 0.486389 15.3333 0.486389C15.1786 0.486389 15.0302 0.547847 14.9209 0.657244C14.8115 0.76664 14.75 0.915013 14.75 1.06972C14.75 1.60639 13.5833 1.77556 13.5833 3.01222C13.5833 4.24889 14.75 4.42389 14.75 4.96056C14.75 5.15306 14.6567 5.24639 14.3767 5.47972ZM9.71 5.47972C8.51417 6.47722 8.84083 7.48639 9.5 7.48639C9.65471 7.48639 9.80308 7.42493 9.91248 7.31553C10.0219 7.20614 10.0833 7.05777 10.0833 6.90306C10.0833 6.36639 11.25 6.19722 11.25 4.96056C11.25 3.40306 9.27833 3.46722 10.4567 2.48722C11.635 1.50722 11.3317 0.486389 10.6667 0.486389C10.512 0.486389 10.3636 0.547847 10.2542 0.657244C10.1448 0.76664 10.0833 0.915013 10.0833 1.06972C10.0833 1.60639 8.91667 1.77556 8.91667 3.01222C8.91667 4.24889 10.0833 4.42389 10.0833 4.96056C10.0833 5.15306 9.99 5.24639 9.71 5.47972ZM19.0433 5.47972C17.8475 6.47722 18.1742 7.48639 18.8333 7.48639C18.988 7.48639 19.1364 7.42493 19.2458 7.31553C19.3552 7.20614 19.4167 7.05777 19.4167 6.90306C19.4167 6.36639 20.5833 6.19722 20.5833 4.96056C20.5833 3.40306 18.6117 3.46722 19.79 2.48722C20.9683 1.50722 20.665 0.486389 20 0.486389C19.8453 0.486389 19.6969 0.547847 19.5875 0.657244C19.4781 0.76664 19.4167 0.915013 19.4167 1.06972C19.4167 1.60639 18.25 1.77556 18.25 3.01222C18.25 4.24889 19.4167 4.42389 19.4167 4.96056C19.4167 5.15306 19.3233 5.24639 19.0433 5.47972Z" fill="#F2994A"/>
</svg>
