<svg width="32" height="26" viewBox="0 0 32 26" fill="none" xmlns="http://www.w3.org/2000/svg">
<path d="M23.6893 11.4H8.35076L7.91023 14.6H24.0898L23.6893 11.4ZM3.18452 25.8L5.14689 11.4H1.58259C1.04861 11.4 0.627838 11.1867 0.320266 10.76C0.0137628 10.3333 -0.0727415 9.86668 0.060753 9.36001L2.34351 1.36001C2.4503 1.01335 2.6372 0.733345 2.90419 0.520012C3.17118 0.306679 3.49156 0.200012 3.86535 0.200012H28.1347C28.5084 0.200012 28.8288 0.306679 29.0958 0.520012C29.3628 0.733345 29.5497 1.01335 29.6565 1.36001L31.9392 9.36001C32.0727 9.86668 31.9862 10.3333 31.6797 10.76C31.3722 11.1867 30.9514 11.4 30.4174 11.4H26.8931L28.8155 25.8H25.6116L24.5303 17.8H7.4697L6.38839 25.8H3.18452Z" fill="#20212E"/>
</svg>
