<svg width="32" height="32" viewBox="0 0 32 32" fill="none" xmlns="http://www.w3.org/2000/svg">
<path d="M16 3.33334C23.364 3.33334 29.3333 9.30268 29.3333 16.6667C29.3333 24.0307 23.364 30 16 30C8.63599 30 2.66666 24.0307 2.66666 16.6667C2.66666 9.30268 8.63599 3.33334 16 3.33334ZM16 6.00001C13.171 6.00001 10.4579 7.12382 8.45752 9.1242C6.45713 11.1246 5.33332 13.8377 5.33332 16.6667C5.33332 19.4957 6.45713 22.2088 8.45752 24.2091C10.4579 26.2095 13.171 27.3333 16 27.3333C18.829 27.3333 21.5421 26.2095 23.5425 24.2091C25.5428 22.2088 26.6667 19.4957 26.6667 16.6667C26.6667 13.8377 25.5428 11.1246 23.5425 9.1242C21.5421 7.12382 18.829 6.00001 16 6.00001ZM16 8.66668C16.3266 8.66672 16.6418 8.78662 16.8858 9.00363C17.1299 9.22064 17.2858 9.51967 17.324 9.84401L17.3333 10V16.1147L20.9427 19.724C21.1818 19.964 21.3206 20.2859 21.331 20.6245C21.3413 20.9631 21.2224 21.293 20.9983 21.547C20.7743 21.8011 20.4619 21.9604 20.1247 21.9925C19.7875 22.0247 19.4506 21.9272 19.1827 21.72L19.0573 21.6093L15.0573 17.6093C14.8501 17.4019 14.717 17.132 14.6787 16.8413L14.6667 16.6667V10C14.6667 9.64639 14.8071 9.30725 15.0572 9.0572C15.3072 8.80715 15.6464 8.66668 16 8.66668Z" fill="#20212E"/>
</svg>
