<svg width="32" height="32" viewBox="0 0 32 32" fill="none" xmlns="http://www.w3.org/2000/svg">
<g clip-path="url(#clip0_321_1093)">
<path d="M4.66667 32H24.6667C25.9063 31.9965 27.0938 31.5013 27.9687 30.6231C28.8436 29.745 29.3344 28.5556 29.3333 27.316V17.2667C29.3333 16.913 29.1929 16.5739 28.9428 16.3239C28.6928 16.0738 28.3536 15.9333 28 15.9333C27.6464 15.9333 27.3072 16.0738 27.0572 16.3239C26.8071 16.5739 26.6667 16.913 26.6667 17.2667V27.316C26.6684 27.8486 26.4588 28.3601 26.0839 28.7383C25.7089 29.1165 25.1992 29.3305 24.6667 29.3333H4.66667C4.1341 29.3305 3.62441 29.1165 3.24945 28.7383C2.87449 28.3601 2.66489 27.8486 2.66667 27.316V7.35067C2.66489 6.81809 2.87449 6.30657 3.24945 5.92836C3.62441 5.55015 4.1341 5.33616 4.66667 5.33333H14.6667C15.0203 5.33333 15.3594 5.19286 15.6095 4.94281C15.8595 4.69276 16 4.35362 16 4C16 3.64638 15.8595 3.30724 15.6095 3.05719C15.3594 2.80714 15.0203 2.66667 14.6667 2.66667H4.66667C3.42707 2.6702 2.23951 3.16538 1.36461 4.04353C0.489709 4.92168 -0.00106279 6.11107 1.72814e-06 7.35067V27.316C-0.00106279 28.5556 0.489709 29.745 1.36461 30.6231C2.23951 31.5013 3.42707 31.9965 4.66667 32Z" fill="#20212E"/>
<path d="M12.6067 14.0587L11.5547 18.8773C11.5071 19.0959 11.5152 19.3229 11.5783 19.5375C11.6415 19.7521 11.7576 19.9474 11.916 20.1053C12.0766 20.2593 12.2719 20.3723 12.4855 20.4347C12.699 20.4972 12.9244 20.5072 13.1427 20.464L17.9507 19.4093C18.2003 19.3545 18.429 19.2291 18.6093 19.048L30.7613 6.896C31.1328 6.52456 31.4275 6.08357 31.6286 5.59822C31.8297 5.11288 31.9331 4.59268 31.9331 4.06733C31.9331 3.54199 31.8297 3.02179 31.6286 2.53644C31.4275 2.0511 31.1328 1.61011 30.7613 1.23867C29.9997 0.510849 28.9868 0.104691 27.9333 0.104691C26.8799 0.104691 25.867 0.510849 25.1053 1.23867L12.972 13.4027C12.7899 13.5818 12.6631 13.8095 12.6067 14.0587ZM26.9907 3.12533C27.2443 2.88232 27.5821 2.74666 27.9333 2.74666C28.2846 2.74666 28.6223 2.88232 28.876 3.12533C29.1227 3.37684 29.2608 3.71506 29.2608 4.06733C29.2608 4.41961 29.1227 4.75783 28.876 5.00933L27.9333 5.952L26.048 4.06667L26.9907 3.12533ZM15.124 15.0107L24.156 5.956L26.0227 7.832L16.9867 16.8893L14.5933 17.4147L15.124 15.0107Z" fill="#20212E"/>
</g>
<defs>
<clipPath id="clip0_321_1093">
<rect width="32" height="32" fill="white"/>
</clipPath>
</defs>
</svg>
