<svg width="50" height="50" viewBox="0 0 50 50" fill="none" xmlns="http://www.w3.org/2000/svg">
<rect width="50" height="50" rx="8" fill="#F2F2F2"/>
<path d="M20.4432 30.5V28.7273L24.5852 24.892C24.9375 24.5511 25.233 24.2443 25.4716 23.9716C25.714 23.6989 25.8977 23.4318 26.0227 23.1705C26.1477 22.9053 26.2102 22.6193 26.2102 22.3125C26.2102 21.9716 26.1326 21.678 25.9773 21.4318C25.822 21.1818 25.6098 20.9905 25.3409 20.858C25.072 20.7216 24.767 20.6534 24.4261 20.6534C24.0701 20.6534 23.7595 20.7254 23.4943 20.8693C23.2292 21.0133 23.0246 21.2197 22.8807 21.4886C22.7367 21.7576 22.6648 22.0777 22.6648 22.4489H20.3295C20.3295 21.6875 20.5019 21.0265 20.8466 20.4659C21.1913 19.9053 21.6742 19.4716 22.2955 19.1648C22.9167 18.858 23.6326 18.7045 24.4432 18.7045C25.2765 18.7045 26.0019 18.8523 26.6193 19.1477C27.2405 19.4394 27.7235 19.8447 28.0682 20.3636C28.4129 20.8826 28.5852 21.4773 28.5852 22.1477C28.5852 22.5871 28.4981 23.0208 28.3239 23.4489C28.1534 23.8769 27.8485 24.3523 27.4091 24.875C26.9697 25.3939 26.3504 26.017 25.5511 26.7443L23.8523 28.4091V28.4886H28.7386V30.5H20.4432Z" fill="#20212E"/>
</svg>
