<svg width="48" height="48" viewBox="0 0 48 48" fill="none" xmlns="http://www.w3.org/2000/svg">
<g opacity="0.5">
<path fill-rule="evenodd" clip-rule="evenodd" d="M16 10C13.2504 10 11 12.2504 11 15V37C11.0001 37.2146 11.0692 37.4235 11.1971 37.5957C11.325 37.768 11.5049 37.8946 11.7103 37.9568C11.9157 38.019 12.1356 38.0135 12.3376 37.9411C12.5396 37.8687 12.7129 37.7332 12.832 37.5547L14 35.8027L15.168 37.5547C15.2593 37.6916 15.383 37.8039 15.5282 37.8816C15.6733 37.9593 15.8354 37.9999 16 37.9999C16.1646 37.9999 16.3267 37.9593 16.4718 37.8816C16.617 37.8039 16.7407 37.6916 16.832 37.5547L18 35.8027L19.168 37.5547C19.2593 37.6916 19.383 37.8039 19.5282 37.8816C19.6733 37.9593 19.8354 37.9999 20 37.9999C20.1646 37.9999 20.3267 37.9593 20.4718 37.8816C20.617 37.8039 20.7407 37.6916 20.832 37.5547L22 35.8027L23.168 37.5547C23.2593 37.6916 23.383 37.8039 23.5282 37.8816C23.6733 37.9593 23.8354 37.9999 24 37.9999C24.1646 37.9999 24.3267 37.9593 24.4718 37.8816C24.617 37.8039 24.7407 37.6916 24.832 37.5547L26 35.8027L27.168 37.5547C27.2871 37.7332 27.4604 37.8687 27.6624 37.9411C27.8644 38.0135 28.0843 38.019 28.2897 37.9568C28.4951 37.8946 28.675 37.768 28.8029 37.5957C28.9308 37.4235 28.9999 37.2146 29 37V25H36C36.2652 25 36.5195 24.8946 36.7071 24.7071C36.8946 24.5195 37 24.2652 37 24V15C37 12.2504 34.7496 10 32 10H16ZM16 12H28.0078C27.3759 12.8373 27 13.8766 27 15V33.6973L26.832 33.4453C26.7407 33.3084 26.617 33.1961 26.4718 33.1184C26.3267 33.0407 26.1646 33.0001 26 33.0001C25.8354 33.0001 25.6733 33.0407 25.5282 33.1184C25.383 33.1961 25.2593 33.3084 25.168 33.4453L24 35.1973L22.832 33.4453C22.7407 33.3084 22.617 33.1961 22.4718 33.1184C22.3267 33.0407 22.1646 33.0001 22 33.0001C21.8354 33.0001 21.6733 33.0407 21.5282 33.1184C21.383 33.1961 21.2593 33.3084 21.168 33.4453L20 35.1973L18.832 33.4453C18.7407 33.3084 18.617 33.1961 18.4718 33.1184C18.3267 33.0407 18.1646 33.0001 18 33.0001C17.8354 33.0001 17.6733 33.0407 17.5282 33.1184C17.383 33.1961 17.2593 33.3084 17.168 33.4453L16 35.1973L14.832 33.4453C14.7407 33.3084 14.617 33.1961 14.4718 33.1184C14.3267 33.0407 14.1646 33.0001 14 33.0001C13.8354 33.0001 13.6733 33.0407 13.5282 33.1184C13.383 33.1961 13.2593 33.3084 13.168 33.4453L13 33.6973V15C13 13.3313 14.3313 12 16 12ZM32 12C33.6687 12 35 13.3313 35 15V23H29V15C29 13.3313 30.3313 12 32 12Z" fill="#20212E"/>
<path fill-rule="evenodd" clip-rule="evenodd" d="M16 22C15.7348 22 15.4804 22.1054 15.2929 22.2929C15.1054 22.4804 15 22.7348 15 23C15 23.2652 15.1054 23.5196 15.2929 23.7071C15.4804 23.8946 15.7348 24 16 24H20C20.2652 24 20.5196 23.8946 20.7071 23.7071C20.8946 23.5196 21 23.2652 21 23C21 22.7348 20.8946 22.4804 20.7071 22.2929C20.5196 22.1054 20.2652 22 20 22H16ZM16 25C15.7348 25 15.4804 25.1054 15.2929 25.2929C15.1054 25.4804 15 25.7348 15 26C15 26.2652 15.1054 26.5196 15.2929 26.7071C15.4804 26.8946 15.7348 27 16 27H24C24.2652 27 24.5196 26.8946 24.7071 26.7071C24.8946 26.5196 25 26.2652 25 26C25 25.7348 24.8946 25.4804 24.7071 25.2929C24.5196 25.1054 24.2652 25 24 25H16ZM16 28C15.7348 28 15.4804 28.1054 15.2929 28.2929C15.1054 28.4804 15 28.7348 15 29C15 29.2652 15.1054 29.5196 15.2929 29.7071C15.4804 29.8946 15.7348 30 16 30H24C24.2652 30 24.5196 29.8946 24.7071 29.7071C24.8946 29.5196 25 29.2652 25 29C25 28.7348 24.8946 28.4804 24.7071 28.2929C24.5196 28.1054 24.2652 28 24 28H16ZM16 15C15.7348 15 15.4805 15.1054 15.2929 15.2929C15.1054 15.4805 15 15.7348 15 16V20C15 20.2652 15.1054 20.5195 15.2929 20.7071C15.4805 20.8946 15.7348 21 16 21H20C20.2652 21 20.5195 20.8946 20.7071 20.7071C20.8946 20.5195 21 20.2652 21 20V16C21 15.7348 20.8946 15.4805 20.7071 15.2929C20.5195 15.1054 20.2652 15 20 15H16ZM17 17H19V19H17V17Z" fill="#20212E"/>
</g>
</svg>
