<svg width="26" height="28" viewBox="0 0 26 28" fill="none" xmlns="http://www.w3.org/2000/svg">
<path fill-rule="evenodd" clip-rule="evenodd" d="M5 0C2.25043 0 0 2.25042 0 5V27C7.92147e-05 27.2146 0.0691745 27.4235 0.197079 27.5957C0.324983 27.768 0.504913 27.8946 0.710289 27.9568C0.915665 28.019 1.1356 28.0135 1.33759 27.9411C1.53959 27.8687 1.71294 27.7332 1.83203 27.5547L3 25.8027L4.16797 27.5547C4.25931 27.6916 4.38303 27.8039 4.52818 27.8816C4.67332 27.9593 4.83539 27.9999 5 27.9999C5.16461 27.9999 5.32668 27.9593 5.47182 27.8816C5.61697 27.8039 5.74069 27.6916 5.83203 27.5547L7 25.8027L8.16797 27.5547C8.25931 27.6916 8.38303 27.8039 8.52818 27.8816C8.67332 27.9593 8.83539 27.9999 9 27.9999C9.16461 27.9999 9.32668 27.9593 9.47182 27.8816C9.61697 27.8039 9.74069 27.6916 9.83203 27.5547L11 25.8027L12.168 27.5547C12.2593 27.6916 12.383 27.8039 12.5282 27.8816C12.6733 27.9593 12.8354 27.9999 13 27.9999C13.1646 27.9999 13.3267 27.9593 13.4718 27.8816C13.617 27.8039 13.7407 27.6916 13.832 27.5547L15 25.8027L16.168 27.5547C16.2871 27.7332 16.4604 27.8687 16.6624 27.9411C16.8644 28.0135 17.0843 28.019 17.2897 27.9568C17.4951 27.8946 17.675 27.768 17.8029 27.5957C17.9308 27.4235 17.9999 27.2146 18 27V15H25C25.2652 15 25.5195 14.8946 25.7071 14.7071C25.8946 14.5195 26 14.2652 26 14V5C26 2.25042 23.7496 0 21 0H5ZM5 2H17.0078C16.3759 2.83731 16 3.87659 16 5V23.6973L15.832 23.4453C15.7407 23.3084 15.617 23.1961 15.4718 23.1184C15.3267 23.0407 15.1646 23.0001 15 23.0001C14.8354 23.0001 14.6733 23.0407 14.5282 23.1184C14.383 23.1961 14.2593 23.3084 14.168 23.4453L13 25.1973L11.832 23.4453C11.7407 23.3084 11.617 23.1961 11.4718 23.1184C11.3267 23.0407 11.1646 23.0001 11 23.0001C10.8354 23.0001 10.6733 23.0407 10.5282 23.1184C10.383 23.1961 10.2593 23.3084 10.168 23.4453L9 25.1973L7.83203 23.4453C7.74069 23.3084 7.61697 23.1961 7.47182 23.1184C7.32668 23.0407 7.16461 23.0001 7 23.0001C6.83539 23.0001 6.67332 23.0407 6.52818 23.1184C6.38303 23.1961 6.25931 23.3084 6.16797 23.4453L5 25.1973L3.83203 23.4453C3.74069 23.3084 3.61697 23.1961 3.47182 23.1184C3.32668 23.0407 3.16461 23.0001 3 23.0001C2.83539 23.0001 2.67332 23.0407 2.52818 23.1184C2.38303 23.1961 2.25931 23.3084 2.16797 23.4453L2 23.6973V5C2 3.3313 3.3313 2 5 2ZM21 2C22.6687 2 24 3.3313 24 5V13H18V5C18 3.3313 19.3313 2 21 2Z" fill="#20212E"/>
<path fill-rule="evenodd" clip-rule="evenodd" d="M5 12C4.73478 12 4.48043 12.1054 4.29289 12.2929C4.10536 12.4804 4 12.7348 4 13C4 13.2652 4.10536 13.5196 4.29289 13.7071C4.48043 13.8946 4.73478 14 5 14H9C9.26522 14 9.51957 13.8946 9.70711 13.7071C9.89464 13.5196 10 13.2652 10 13C10 12.7348 9.89464 12.4804 9.70711 12.2929C9.51957 12.1054 9.26522 12 9 12H5ZM5 15C4.73478 15 4.48043 15.1054 4.29289 15.2929C4.10536 15.4804 4 15.7348 4 16C4 16.2652 4.10536 16.5196 4.29289 16.7071C4.48043 16.8946 4.73478 17 5 17H13C13.2652 17 13.5196 16.8946 13.7071 16.7071C13.8946 16.5196 14 16.2652 14 16C14 15.7348 13.8946 15.4804 13.7071 15.2929C13.5196 15.1054 13.2652 15 13 15H5ZM5 18C4.73478 18 4.48043 18.1054 4.29289 18.2929C4.10536 18.4804 4 18.7348 4 19C4 19.2652 4.10536 19.5196 4.29289 19.7071C4.48043 19.8946 4.73478 20 5 20H13C13.2652 20 13.5196 19.8946 13.7071 19.7071C13.8946 19.5196 14 19.2652 14 19C14 18.7348 13.8946 18.4804 13.7071 18.2929C13.5196 18.1054 13.2652 18 13 18H5ZM5 5C4.73479 5.00003 4.48045 5.10539 4.29292 5.29292C4.10539 5.48045 4.00003 5.73479 4 6V10C4.00003 10.2652 4.10539 10.5195 4.29292 10.7071C4.48045 10.8946 4.73479 11 5 11H9C9.26521 11 9.51955 10.8946 9.70708 10.7071C9.89461 10.5195 9.99997 10.2652 10 10V6C9.99997 5.73479 9.89461 5.48045 9.70708 5.29292C9.51955 5.10539 9.26521 5.00003 9 5H5ZM6 7H8V9H6V7Z" fill="#20212E"/>
</svg>
