<svg width="32" height="32" viewBox="0 0 32 32" fill="none" xmlns="http://www.w3.org/2000/svg">
<path d="M16 2.66666C13.172 2.66983 10.4607 3.79466 8.46105 5.79436C6.46135 7.79406 5.33652 10.5053 5.33334 13.3333C5.33334 17.6733 8.48401 21.2773 11.8213 25.092C12.8773 26.3 13.9707 27.5493 14.944 28.8133C15.0686 28.9749 15.2285 29.1057 15.4116 29.1958C15.5947 29.2858 15.796 29.3326 16 29.3326C16.204 29.3326 16.4053 29.2858 16.5884 29.1958C16.7715 29.1057 16.9315 28.9749 17.056 28.8133C18.0293 27.5493 19.1227 26.3 20.1787 25.092C23.516 21.2773 26.6667 17.6733 26.6667 13.3333C26.6635 10.5053 25.5387 7.79406 23.539 5.79436C21.5393 3.79466 18.828 2.66983 16 2.66666ZM16 17.3333C15.2089 17.3333 14.4355 17.0987 13.7777 16.6592C13.1199 16.2197 12.6072 15.595 12.3045 14.8641C12.0017 14.1332 11.9225 13.3289 12.0769 12.553C12.2312 11.777 12.6122 11.0643 13.1716 10.5049C13.731 9.94549 14.4437 9.56452 15.2196 9.41018C15.9956 9.25584 16.7998 9.33505 17.5307 9.63781C18.2616 9.94056 18.8864 10.4532 19.3259 11.111C19.7654 11.7688 20 12.5422 20 13.3333C20 14.3942 19.5786 15.4116 18.8284 16.1618C18.0783 16.9119 17.0609 17.3333 16 17.3333Z" fill="#20212E"/>
</svg>
