<svg width="64" height="63" viewBox="0 0 64 63" fill="none" xmlns="http://www.w3.org/2000/svg">
<rect width="64" height="63" rx="8" fill="#F5F5F5"/>
<path d="M32.3 19.72C32.8336 19.2581 33.2616 18.6869 33.5549 18.045C33.8482 17.4032 34 16.7057 34 16C34 14.6739 33.4732 13.4021 32.5355 12.4645C31.5979 11.5268 30.3261 11 29 11C27.6739 11 26.4021 11.5268 25.4645 12.4645C24.5268 13.4021 24 14.6739 24 16C24 16.7057 24.1518 17.4032 24.4451 18.045C24.7384 18.6869 25.1664 19.2581 25.7 19.72C24.3001 20.3539 23.1125 21.3775 22.279 22.6685C21.4455 23.9596 21.0015 25.4633 21 27C21 27.2652 21.1054 27.5196 21.2929 27.7071C21.4804 27.8946 21.7348 28 22 28C22.2652 28 22.5196 27.8946 22.7071 27.7071C22.8946 27.5196 23 27.2652 23 27C23 25.4087 23.6321 23.8826 24.7574 22.7574C25.8826 21.6321 27.4087 21 29 21C30.5913 21 32.1174 21.6321 33.2426 22.7574C34.3679 23.8826 35 25.4087 35 27C35 27.2652 35.1054 27.5196 35.2929 27.7071C35.4804 27.8946 35.7348 28 36 28C36.2652 28 36.5196 27.8946 36.7071 27.7071C36.8946 27.5196 37 27.2652 37 27C36.9985 25.4633 36.5545 23.9596 35.721 22.6685C34.8875 21.3775 33.6999 20.3539 32.3 19.72ZM29 19C28.4067 19 27.8266 18.8241 27.3333 18.4944C26.8399 18.1648 26.4554 17.6962 26.2284 17.1481C26.0013 16.5999 25.9419 15.9967 26.0576 15.4147C26.1734 14.8328 26.4591 14.2982 26.8787 13.8787C27.2982 13.4591 27.8328 13.1734 28.4147 13.0576C28.9967 12.9419 29.5999 13.0013 30.1481 13.2284C30.6962 13.4554 31.1648 13.8399 31.4944 14.3333C31.8241 14.8266 32 15.4067 32 16C32 16.7956 31.6839 17.5587 31.1213 18.1213C30.5587 18.6839 29.7956 19 29 19ZM38.74 19.32C39.38 18.5993 39.798 17.7091 39.9438 16.7563C40.0896 15.8036 39.9569 14.8291 39.5618 13.95C39.1666 13.0709 38.5258 12.3248 37.7165 11.8014C36.9071 11.2781 35.9638 10.9997 35 11C34.7348 11 34.4804 11.1054 34.2929 11.2929C34.1054 11.4804 34 11.7348 34 12C34 12.2652 34.1054 12.5196 34.2929 12.7071C34.4804 12.8946 34.7348 13 35 13C35.7956 13 36.5587 13.3161 37.1213 13.8787C37.6839 14.4413 38 15.2044 38 16C37.9986 16.5252 37.8593 17.0409 37.5961 17.4954C37.3328 17.9499 36.9549 18.3274 36.5 18.59C36.3517 18.6755 36.2279 18.7977 36.1404 18.9447C36.0528 19.0918 36.0045 19.2589 36 19.43C35.9958 19.5998 36.0349 19.7678 36.1137 19.9183C36.1924 20.0687 36.3081 20.1967 36.45 20.29L36.84 20.55L36.97 20.62C38.1754 21.1917 39.1923 22.096 39.901 23.2263C40.6096 24.3566 40.9805 25.6659 40.97 27C40.97 27.2652 41.0754 27.5196 41.2629 27.7071C41.4504 27.8946 41.7048 28 41.97 28C42.2352 28 42.4896 27.8946 42.6771 27.7071C42.8646 27.5196 42.97 27.2652 42.97 27C42.9782 25.4654 42.5938 23.9543 41.8535 22.6101C41.1131 21.2659 40.0413 20.1333 38.74 19.32Z" fill="#20212E"/>
<path d="M26.1815 47.9432V45.5213L32.2539 35.9545H34.342V39.3068H33.1062L29.2781 45.3651V45.4787H37.9073V47.9432H26.1815ZM33.163 50.5V47.2045L33.2198 46.1321V35.9545H36.1033V50.5H33.163Z" fill="#20212E"/>
<rect width="4" height="63" fill="#BDBDBD"/>
</svg>
