<svg width="64" height="64" viewBox="0 0 64 64" fill="none" xmlns="http://www.w3.org/2000/svg">
<rect width="64" height="64" rx="8" fill="#F5F5F5"/>
<path d="M39.6893 30.4H24.3508L23.9102 33.6H40.0898L39.6893 30.4ZM19.1845 44.8L21.1469 30.4H17.5826C17.0486 30.4 16.6278 30.1867 16.3203 29.76C16.0138 29.3333 15.9273 28.8667 16.0608 28.36L18.3435 20.36C18.4503 20.0133 18.6372 19.7333 18.9042 19.52C19.1712 19.3067 19.4916 19.2 19.8653 19.2H44.1347C44.5084 19.2 44.8288 19.3067 45.0958 19.52C45.3628 19.7333 45.5497 20.0133 45.6565 20.36L47.9392 28.36C48.0727 28.8667 47.9862 29.3333 47.6797 29.76C47.3722 30.1867 46.9514 30.4 46.4174 30.4H42.8931L44.8155 44.8H41.6116L40.5303 36.8H23.4697L22.3884 44.8H19.1845Z" fill="#20212E"/>
<rect width="4" height="63" fill="#BDBDBD"/>
</svg>
