<svg width="24" height="20" viewBox="0 0 24 20" fill="none" xmlns="http://www.w3.org/2000/svg">
<path d="M5.42661 9.53913C6.49606 9.53829 7.53213 9.17116 8.35832 8.50031C9.18451 7.82945 9.74972 6.89636 9.95764 5.85999C10.1656 4.82363 10.0033 3.7481 9.4986 2.81664C8.99388 1.88518 8.17787 1.15542 7.18959 0.751661C6.20131 0.347906 5.10191 0.295143 4.07867 0.602359C3.05543 0.909575 2.17166 1.55777 1.57791 2.43651C0.98417 3.31524 0.717184 4.37017 0.82244 5.42157C0.927696 6.47296 1.39868 7.45578 2.15516 8.2026C2.58451 8.62722 3.09453 8.96387 3.65594 9.19324C4.21735 9.4226 4.81909 9.54014 5.42661 9.53913ZM4.13502 3.69467C4.43383 3.39949 4.82701 3.21579 5.24754 3.17489C5.66808 3.13398 6.08997 3.23839 6.44132 3.47033C6.79267 3.70227 7.05174 4.04739 7.1744 4.44688C7.29706 4.84637 7.27571 5.27552 7.11399 5.6612C6.95227 6.04689 6.66019 6.36525 6.28751 6.56203C5.91484 6.75882 5.48462 6.82186 5.07017 6.74041C4.65572 6.65897 4.28267 6.43807 4.0146 6.11537C3.74652 5.79266 3.6 5.38811 3.6 4.97065C3.59934 4.73358 3.64629 4.49873 3.73812 4.27971C3.82996 4.06068 3.96486 3.86183 4.13502 3.69467ZM18.5734 10.4585C17.503 10.4585 16.4657 10.8252 15.6383 11.496C14.8108 12.1668 14.2444 13.1004 14.0356 14.1375C13.8268 15.1746 13.9884 16.2512 14.493 17.1838C14.9976 18.1165 15.8138 18.8474 16.8028 19.2521C17.7917 19.6567 18.892 19.7101 19.9164 19.4032C20.9407 19.0962 21.8256 18.4479 22.4202 17.5686C23.0149 16.6894 23.2826 15.6336 23.1777 14.5813C23.0728 13.5289 22.6018 12.545 21.8449 11.7973C21.4163 11.3715 20.9064 11.0339 20.3449 10.8042C19.7833 10.5744 19.1812 10.4569 18.5734 10.4585ZM19.865 16.3052C19.522 16.6415 19.0581 16.8298 18.5748 16.8289C18.0916 16.828 17.6284 16.6379 17.2867 16.3004C16.945 15.9628 16.7526 15.5052 16.7517 15.0278C16.7508 14.5504 16.9414 14.0921 17.2818 13.7532C17.4512 13.5847 17.6526 13.4508 17.8745 13.3592C18.0964 13.2677 18.3344 13.2204 18.5748 13.2199C18.8153 13.2195 19.0534 13.266 19.2757 13.3567C19.4979 13.4474 19.6998 13.5805 19.8698 13.7485C20.0398 13.9165 20.1746 14.1159 20.2664 14.3355C20.3582 14.555 20.4052 14.7903 20.4048 15.0278C20.4043 15.2654 20.3564 15.5005 20.2638 15.7197C20.1711 15.9389 20.0356 16.1379 19.8649 16.3052L19.865 16.3052ZM21.3073 0.805071C21.4373 0.933501 21.5404 1.08597 21.6108 1.25377C21.6812 1.42158 21.7174 1.60143 21.7174 1.78306C21.7174 1.96469 21.6812 2.14454 21.6108 2.31234C21.5404 2.48015 21.4373 2.63262 21.3073 2.76105L4.67262 19.1948C4.40972 19.4525 4.05416 19.5968 3.68379 19.5961C3.31342 19.5954 2.95842 19.4497 2.69654 19.191C2.43465 18.9322 2.28721 18.5815 2.2865 18.2156C2.28579 17.8498 2.43187 17.4985 2.69276 17.2388L19.3275 0.805071C19.59 0.545704 19.9461 0.399994 20.3174 0.399994C20.6887 0.399994 21.0448 0.545704 21.3073 0.805071Z" fill="#20212E"/>
</svg>
