<svg width="32" height="32" viewBox="0 0 32 32" fill="none" xmlns="http://www.w3.org/2000/svg">
<g clip-path="url(#clip0_321_1096)">
<path d="M26.4062 6.1875V4.6875C26.4062 2.10281 24.3034 0 21.7188 0H10.2188C7.63406 0 5.53125 2.10281 5.53125 4.6875V6.1875H26.4062Z" fill="#20212E"/>
<path d="M7.40625 19.9375V30.125C7.40625 31.1605 8.24569 32 9.28125 32H22.6562C23.6918 32 24.5312 31.1605 24.5312 30.125V19.9375H7.40625ZM18.4688 27.9375H13.4688C12.951 27.9375 12.5312 27.5177 12.5312 27C12.5312 26.4823 12.951 26.0625 13.4688 26.0625H18.4688C18.9865 26.0625 19.4062 26.4823 19.4062 27C19.4062 27.5177 18.9865 27.9375 18.4688 27.9375ZM18.4688 23.9375H13.4688C12.951 23.9375 12.5312 23.5177 12.5312 23C12.5312 22.4823 12.951 22.0625 13.4688 22.0625H18.4688C18.9865 22.0625 19.4062 22.4823 19.4062 23C19.4062 23.5177 18.9865 23.9375 18.4688 23.9375Z" fill="#20212E"/>
<path d="M27.2812 8.0625H4.71875C2.13406 8.0625 0.03125 10.1653 0.03125 12.75V20.25C0.03125 22.8347 2.13406 24.9375 4.71875 24.9375H5.53125V19.9375H4.96875C4.451 19.9375 4.03125 19.5177 4.03125 19C4.03125 18.4823 4.451 18.0625 4.96875 18.0625H26.9688C27.4865 18.0625 27.9062 18.4823 27.9062 19C27.9062 19.5177 27.4865 19.9375 26.9688 19.9375H26.4062V24.9375H27.2812C29.8659 24.9375 31.9688 22.8347 31.9688 20.25V12.75C31.9688 10.1653 29.8659 8.0625 27.2812 8.0625ZM7.96875 13.9375H4.96875C4.451 13.9375 4.03125 13.5177 4.03125 13C4.03125 12.4823 4.451 12.0625 4.96875 12.0625H7.96875C8.4865 12.0625 8.90625 12.4823 8.90625 13C8.90625 13.5177 8.4865 13.9375 7.96875 13.9375Z" fill="#20212E"/>
</g>
<defs>
<clipPath id="clip0_321_1096">
<rect width="32" height="32" fill="white"/>
</clipPath>
</defs>
</svg>
