<svg width="32" height="32" viewBox="0 0 32 32" fill="none" xmlns="http://www.w3.org/2000/svg">
<path d="M16 1.33333C13.0992 1.33333 10.2635 2.19352 7.85162 3.80511C5.4397 5.4167 3.55984 7.70732 2.44975 10.3873C1.33967 13.0673 1.04922 16.0163 1.61514 18.8613C2.18105 21.7064 3.57792 24.3197 5.62909 26.3709C7.68026 28.4221 10.2936 29.8189 13.1387 30.3848C15.9837 30.9508 18.9327 30.6603 21.6127 29.5502C24.2927 28.4401 26.5833 26.5603 28.1949 24.1484C29.8065 21.7364 30.6667 18.9008 30.6667 16C30.6667 12.1102 29.1214 8.37963 26.3709 5.6291C23.6204 2.87857 19.8898 1.33333 16 1.33333ZM17.3333 4.08C19.5854 4.34415 21.7166 5.24101 23.48 6.66667L17.3333 12.7867V4.08ZM3.99999 16C4.00139 13.0493 5.08992 10.2025 7.05761 8.00357C9.0253 5.80468 11.7342 4.40786 14.6667 4.08V16C14.6656 16.1755 14.6993 16.3494 14.7656 16.5119C14.832 16.6743 14.9297 16.8221 15.0533 16.9467L23.48 25.3333C21.7172 26.7386 19.5942 27.6188 17.3542 27.8733C15.1142 28.1277 12.8479 27.746 10.8148 26.7719C8.78175 25.7978 7.06419 24.2707 5.85891 22.3656C4.65364 20.4605 4.00939 18.2544 3.99999 16ZM25.3333 23.48L17.88 16L25.3333 8.52C27.0273 10.6451 27.9498 13.2823 27.9498 16C27.9498 18.7177 27.0273 21.3549 25.3333 23.48Z" fill="#20212E"/>
</svg>
