<svg width="32" height="32" viewBox="0 0 32 32" fill="none" xmlns="http://www.w3.org/2000/svg">
<path d="M2.74668 13.4133C3.42668 14.0933 4.50668 14.16 5.24001 13.5467C11.4667 8.42666 20.5067 8.42666 26.7467 13.5333C27.4933 14.1467 28.5867 14.0933 29.2667 13.4133C30.0533 12.6267 30 11.32 29.1333 10.6133C21.52 4.38666 10.5067 4.38666 2.88001 10.6133C2.01334 11.3067 1.94668 12.6133 2.74668 13.4133ZM13.0933 23.76L15.0533 25.72C15.5733 26.24 16.4133 26.24 16.9333 25.72L18.8933 23.76C19.52 23.1333 19.3867 22.0533 18.5867 21.64C16.96 20.8 15.0133 20.8 13.3733 21.64C12.6133 22.0533 12.4667 23.1333 13.0933 23.76ZM8.12001 18.7867C8.77334 19.44 9.80001 19.5067 10.56 18.96C13.8133 16.6533 18.1867 16.6533 21.44 18.96C22.2 19.4933 23.2267 19.44 23.88 18.7867L23.8933 18.7733C24.6933 17.9733 24.64 16.6133 23.72 15.96C19.1333 12.64 12.88 12.64 8.28001 15.96C7.36001 16.6267 7.30668 17.9733 8.12001 18.7867Z" fill="#20212E"/>
</svg>
